<svg xmlns="http://www.w3.org/2000/svg" viewBox="0 0 323.9 320" xml:space="preserve">
  <path d="m222.3 308.3-6.6 3.6c-8 4.1-17.2 3.4-25.6 5.5-12 3-24.1 2.4-36.3 2.6-5 0-10.2-.5-15.3-1a466 466 0 0 1-21.5-2.7c-8-1.2-16-3.1-23.4-7-4.9-2.6-11-2.8-16-5-7.5-3.4-15-7-21.8-11.4A165 165 0 0 1 36.6 278a100 100 0 0 1-23-30c-6.4-12.3-9-25.3-11.8-38.4C.2 202.5.4 194.8.3 187.4c-.2-9.6-.6-19.3.2-28.8 1.3-14.5 3.3-29 5.6-43.4a71 71 0 0 1 5-18.7c5.1-11.3 10.2-22.8 17.4-32.8 7-9.8 15.2-19 25.2-26.6a114 114 0 0 1 26.2-14.7c11-4.4 21.6-9.2 32.5-13.6a112 112 0 0 1 43-8.8c8.2.2 16.2 2.7 24.3 4 2.3.5 4.6.7 7 .6 11-.5 21.8 1 31.6 6.7 11.6 6.8 23.8 12.6 34.5 20.5 13 9.6 24.6 21 35 33.6 8.5 10.2 14.8 21.8 21 33.1 5.3 9.5 7.5 20.7 10.7 31.3 4.3 14.1 5 28.8 4.1 43.4-.4 8.2-2.2 16.4-3.4 24.5-.4 2.5-1 5-1.6 7.3-3 10-5 20.4-9.2 29.8-7.9 17-17.5 33.1-32.1 45.4-7.7 6.5-15.5 13-24 18.1-7.3 4.4-16 6.4-23.7 10.1-3.2 1.5-5.4 2-7.3 0zm-187-42c1.3.4 3.6.8 5.2 2 4.6 3.5 8.8 7.5 13.5 11 4.4 3.2 9.5 5.6 13.7 9 4.3 3.4 9.8 3.7 14.5 6.2 7.3 4 15.7 6 23.8 8a188 188 0 0 0 26.8 4.7c10 1 20 1.2 30.1 1.2 7.1 0 14.2-.8 21.3-1.4 5.4-.5 11-.8 16.2-2.2 10.5-2.8 20.9-6 31.2-9.3 9.6-3 18.8-7 26.5-13.7 6.7-5.8 13.6-11.6 19.4-18.3 6.4-7.3 12.6-15.1 17.3-23.6 8-14.8 12-31.2 15.4-47.6 1.7-7.9 2-16 2.4-24.1.4-6.7 1-13.6 0-20.2-1.3-8.6-3.8-17.1-6.2-25.6-2-6.8-4-13.8-7.1-20.1a184.7 184.7 0 0 0-34-47.5 187.9 187.9 0 0 0-47.4-32.2c-6.1-3.2-13-5-19.5-7-3.2-1-6.2.3-9.4 1.5-2.7 1-6.5-1-9.8-1.7-1-.2-2 0-3 0-4.5.8-8.5.3-11.9-3.3-.9-1-3.1-1-4.7-1-9 .4-18.2.5-27 3.2-5.3 1.6-10.8 2.7-16 4.8C105 23.8 93.6 29.3 82 34a75 75 0 0 0-24.2 15c-10.4 9.7-20 20-27.2 32.2-4 6.8-8 13.7-10.3 21a190 190 0 0 0-7.9 42.4c-1.6 19-3.8 38-.8 57 2.1 13 3.4 26 9.9 38.2 4.2 7.8 7.6 16 13.4 22.8.7.8.4 2.4.6 3.7z"/>
  <path d="M60.3 209.3c.7 0 2.3.5 3.3-.1 8.6-5.5 16.8-11.6 25.7-16.7a900.4 900.4 0 0 1 40.4-21.4c7.8-4 16.2-6.6 23.8-10.8 7.1-4 10.3-11 10-19.2-.7-13.2-2-26.3-2.7-39.5-.3-5.3-.1-10.6-.1-15.9 0-11.7.1-23.5-.1-35.2 0-3.2 1-5.5 3.8-6.2 3-.7 5 1.3 6 4.1.5 1.6.9 3.2.9 4.8.2 15.2.1 30.3.7 45.4.5 13.6 1.8 27.1 2.7 40.6l-.2 5c0 1.7-.2 3.6.4 5 3.2 7.9-1.3 15.7-9.6 16.3-.8 0-1.7-.1-2.2.2-4.5 2.9-8.6 7-13.5 8.5-13.7 4.6-26.4 11.4-39.3 17.7-8.5 4.2-16 10.2-24 15.4L73 216.1l-10.7 7c-3.6 2.6-7.9 1.8-9.6-2.8-.5-1.3.6-3.6 1.7-5 1.6-2 3.7-3.8 6-6z"/>
</svg>
