<svg xmlns="http://www.w3.org/2000/svg" viewBox="0 0 481.69 330.83" xml:space="preserve">
  <path d="M87.85 72.87c-4.61-2.01-8.7-.83-11.57 4.26-.73 1.29-1.84 2.36-2.8 3.51-2.4 2.87-3.18 5.83-1.84 9.63.96 2.72 1.12 5.88.89 8.78-.11 1.33-1.85 3.33-3.17 3.62-4.42.98-9.38-3.93-9.22-8.66.25-7.7-3.04-10.97-10.29-8.64-7.85 2.52-15.36 6.21-19.6 14.16-2.97 5.56-2.94 6.29 1.74 10.21 3.11 2.61 3.03 5-.45 7.11-1.54.94-3.41 2.14-5.02 2-5.31-.47-7.69 3.33-9.23 6.86-2.76 6.34-5.14 13.01-6.37 19.78-.72 3.97.35 8.7 1.9 12.57 4.27 10.66 14.61 12.94 23.58 5.64 3.86-3.14 7.77-6.25 11.39-9.65 2.67-2.5 3.78.14 5.46 1.14 2.35 1.41.69 2.66-.05 4.09-4.94 9.62-12.45 15.71-23.35 17.2-12.37 1.7-24.87-6.72-28.39-18.63-2.96-10.03-1.16-19.56 2.94-28.6 2.85-6.28 7.07-11.92 10.63-17.88.74-1.24 1.71-2.55 1.84-3.9 1.34-14.75 11.58-22.18 23.39-27.91 5.89-2.86 12.56-3.04 18.93-1.13 2.37.71 3.8.23 5.16-1.52 2.34-3.01 4.56-6.14 7.08-9 4.15-4.7 9.81-6.39 15.41-2.57 12.43 8.49 17.49 20.14 16.47 34.97-.51 7.43-3.36 13.83-7.42 19.76-1.3 1.89-.4 2.71.5 3.78 2.77 3.32 5.61 6.59 8.46 9.84 5.2 5.92 6.64 26.07-.07 32.94-4.3 4.4-7.85 5.4-13.63 3.85-4.92-1.32-8.52-4.04-11.6-7.78-.83-1.01-1.58-2.09-2.81-2.76.44 6.73 4.19 11.83 7.56 16.89 7.02 10.51 14.86 20.45 24.51 28.74 11.78 10.13 23.48 20.39 35.71 29.97 9.09 7.12 18.98 13.19 28.46 19.82 7.74 5.41 15.41 10.92 23.06 16.45 6.28 4.54 12.71 8.92 18.65 13.88a109 109 0 0 1 12.96 13c1.51 1.76 1.59 4.74 2.31 7.12 1.59-2.32 2.12-5.04 1.16-8.46a626.86 626.86 0 0 1-7.1-27.76c-1.52-6.56-2.2-13.33-3.93-19.82-2.16-8.11-5.31-15.96-7.48-24.07a432.4 432.4 0 0 1-7.12-30.56c-2.62-13.72-4.83-27.53-4.44-41.58.29-10.46.24-20.96 1.26-31.36.84-8.51 3.06-16.89 4.59-25.34.29-1.6.22-3.27.32-5.09-5.68 3.32-10.87 6.94-16.55 9.47-4.12 1.83-8.9 3.15-13.35 3.04-11.74-.27-18.94-7.5-20.41-19.22-1.49-11.91.38-22.89 8.77-32.09 1.36-1.49 1.68-2.79.7-4.88-6.65-14.08 7.42-32 22.83-29.39a51.93 51.93 0 0 1 17.11 6.04c4.18 2.34 3.93 2.18 6-2.03 1.88-3.83 3.96-7.74 6.78-10.88 5.78-6.45 17.49-5.45 23.47-.18 9.73 8.58 13.18 26.66 6.84 37.97a51.85 51.85 0 0 1-4.87 7.42c-1.37 1.68-1.39 2.78.16 4.19 11.5 10.5 11.95 23.79 9.28 37.75-1.85 9.69-7.57 16.75-16.53 20.43-9.16 3.77-18.17.42-21.05-9.87-.58-2.07-1.24-4.12-1.86-6.17l-1.15.06c.22 7.01.3 14.03.71 21.02.2 3.36-.2 6.39-1.2 9.68a37.05 37.05 0 0 0-1.41 12.76 786.8 786.8 0 0 0 2.78 33.22 353.4 353.4 0 0 0 2.69 20.75c.57 3.58 1.87 7.04 2.7 10.59 2.23 9.51 4.3 19.06 6.6 28.55 1.49 6.12 3.44 12.14 4.9 18.27 2 8.4 3.8 16.84 5.54 25.29.47 2.29.2 4.73.69 7.02.16.77 1.59 1.28 2.44 1.9.1-.96.26-1.92.3-2.88.09-2.46-.19-4.98.25-7.37 1.79-9.63 3.28-19.36 5.84-28.79 3.55-13.1 7.19-26.29 12.2-38.87 7.17-18.02 14.8-36 25.45-52.29 8.26-12.64 17.83-24.37 29.84-33.91 5.85-4.65 11.06-10.09 16.81-14.86 9.99-8.28 20.77-15.46 32.52-20.97a996.21 996.21 0 0 1 34.95-15.32c2.96-1.25 6.25-1.73 10.28-2.8-1.57-.63-2.36-1.21-3.16-1.22-12.11-.16-20.58-6.2-23.93-17.72-1.75-6-3.6-12.18-3.89-18.34-.71-14.87 7.22-25.8 21.19-30.92 4.81-1.76 9.58-4.49 14.75-1.71a39.03 39.03 0 0 1 8.42 5.99c2.56 2.44 4.33 2.22 7.29.45 5.33-3.18 10.72-6.47 17.01-7.74 1.67-.33 3.12-1.59 4.77-2.17 6.12-2.15 9.87-1.17 11.92 4.46 3.49 9.61 7.12 19.35 4.4 30-.25.98.7 2.76 1.63 3.46 7.23 5.46 12.03 12.37 12.83 21.53.96 10.91-1.76 21.1-9.39 28.9-7.64 7.8-17.28 11.8-28.68 9.62-2.24-.43-3.8-.15-4.21 3.14-1.19 9.48-7.43 14.97-15.46 19.67-9.69 5.66-19.81 6.27-30.25 4.86-6.4-.87-12.57-3.1-15.38-10.04-1.39-3.42-1.77-6.7.28-10.01 2.91-4.7 5.74-9.46 8.77-14.45-.54-.04-1.54-.43-2.19-.11-5.69 2.79-11.46 5.46-16.93 8.65-8.43 4.91-17.01 9.7-24.84 15.47-7.84 5.77-15.07 12.44-22.16 19.14-6.72 6.35-13.46 12.83-19.2 20.04-5.83 7.33-10.79 15.42-15.48 23.55-3.97 6.88-7.1 14.26-10.44 21.5-1.87 4.05-3.28 8.31-5.1 12.38-6.38 14.28-11.16 29.12-14.92 44.25-2.86 11.51-4.7 23.27-7.05 34.91-1.83 9.08-3.8 18.14-5.59 27.23-.38 1.93-.34 3.95-.42 5.93-.11 2.79-1.27 4.98-4.08 5.55-2.68.55-5.06-.42-6.1-3.15-2.2-5.74-4.23-11.56-6.34-17.33-.21-.56-.42-1.17-.81-1.6-2.71-3.01-5.47-5.96-8.2-8.96-.89-.98-1.51-2.49-2.6-2.96-2.53-1.1-2.92-3.07-3.47-5.4-.32-1.35-1.7-3.11-2.94-3.46-10.02-2.81-18.47-8.63-27.04-14.08-6.39-4.06-12.14-9.12-18.33-13.52-8.77-6.24-17.91-11.98-26.46-18.5-8.7-6.63-16.98-13.84-25.26-21.01a290.02 290.02 0 0 1-17.35-16.09c-10.83-11.04-20.89-22.71-26.53-37.45a140.9 140.9 0 0 1-3.73-11.36c-1.79-6.19-3.73-12.36-5.01-18.67-.84-4.14.64-5.35 5.04-6.05 1.94-.31 3.83-.99 5.75-1.44 4.57-1.08 5.27-.52 5.62 4.01.78 10.11 4.87 18.52 12.87 24.93 6.37 5.11 9.02 4.31 10.82-3.51 1.75-7.65-.38-14.38-4.85-20.68-2.03-2.85-6.65-4.26-5.47-9.1.01-.05-.96-.37-1.48-.53-2.06-.61-4.27-.92-6.12-1.91-1.11-.59-2.32-2.26-2.29-3.41.03-1.19 1.39-3.22 2.38-3.36 10.68-1.49 10.6-10.38 12.54-17.84 1.78-6.83-1.2-12.62-4.35-18.32-.72-1.31-1.82-2.49-2.22-3.88-.25-.78.56-1.89 1-3.17zm316.86 45.16c7.84-.8 8.32-.92 14.62-4.08 8.51-4.26 11.97-12.63 8.86-21.45-1.09-3.1.49-5.86 3.63-6.21a4.34 4.34 0 0 1 2.43.32c7.85 4.21 15.89 4.04 24.08 1.18.56-.19 1.44.11 1.77-.22 4.5-4.44 8.32-9.31 10.18-15.53 2.26-7.55 3.36-14.71-2.59-21.43-2.29-2.58-4.09-3.08-6.74-1.34-3.05 2-6.02 4.13-9.07 6.13-3.83 2.52-8.4.7-8.45-3.68-.02-1.74 1.52-3.86 2.93-5.18 10.92-10.27 15.31-18.2 9.77-33.06-1.45-3.89-2.86-5.13-6.47-3.52-4.92 2.19-9.5 5.19-14.1 8.03-4.19 2.59-6.19 6.37-6.84 11.42a14.53 14.53 0 0 1-9.8 12.23 7.51 7.51 0 0 1-6.27-1.08c-1.24-1.04-1.93-4.16-1.3-5.75 1.67-4.26 4.22-8.17 6.3-12.28.55-1.08 1.16-2.47.93-3.54-.71-3.34-7.11-7.67-10.48-6.96-7.23 1.51-13.24 4.96-17.43 11.38-3.8 5.84-4.04 12.14-3.45 18.73.89 9.99 7.25 24.27 20.42 23.54 5.97-.33 7.13 4.4 8.98 7.99 1.05 2.04 1.3 3.8 3.89 4.92 3.58 1.54 3.34 5.5-.27 7.05-2.94 1.27-6.34 1.5-9.25 2.81-9.84 4.41-18.46 10.31-23.29 20.49-2.15 4.53-1.23 7.01 3.64 7.86 4.4.78 8.91.86 13.37 1.23zM227.2 11.61c-.23 2.05.18 4.35-.75 5.81-4.39 6.88-7.95 13.82-6.5 22.41.5 2.93-1.69 4.26-4.29 4.32-2.86.07-5.23-1.17-6.31-4.02-2.85-7.49-9.19-10.57-16.13-12.87-8.95-2.96-17.28 2.86-17.95 12.2-.24 3.35.48 4.37 4.02 4.14 2.42-.16 5.08.88 7.36 1.96 1.01.48 2.01 2.47 1.82 3.59-.2 1.19-1.66 2.34-2.82 3.15-.73.51-1.92.46-2.91.47-3.27.03-5.48 1.71-7.55 4.12-7.77 9.04-9.5 19.47-7.6 30.85.81 4.89 3.83 7.82 8.8 7.74a21.7 21.7 0 0 0 7.63-1.67c5.53-2.25 10.78-5.23 16.4-7.22 6.23-2.2 11.17-4.88 10.14-12.66-.04-.31 0-.73.18-.97.96-1.23 1.94-3.36 2.99-3.41 1.93-.08 4.15.73 5.77 1.85 1.01.7 1.39 2.6 1.64 4.04.89 5.07 1.57 10.18 2.37 15.26.88 5.58 1.67 11.18 2.74 16.72.66 3.4 3.06 5.09 5.37 4.18 4.82-1.89 8.45-4.87 10.38-9.96 2.5-6.61 2.52-13.37 1.92-20.17-.65-7.36-4.01-13.21-10.45-17.18-5.15-3.17-5.17-5.47-.3-9.38.75-.6 1.39-1.36 2.05-2.07 7.54-8.16 8.63-17.38 5.34-27.79-2.24-7.16-5.85-12.3-13.36-13.44z"/>
  <path d="M53.51 121.84c1.03-1.94 1.6-4.67 3.01-5.22 1.51-.58 4.05.53 5.7 1.59 1.42.92 2.48 2.68 3.23 4.29 1.08 2.31.75 4.67-1.62 6.06-2.24 1.31-4.83 1.93-6.74-.45-1.39-1.74-2.25-3.89-3.58-6.27zM425.76 57.86c6.54-.25 8.49 1.2 10.45 6.88.2.59.72 1.08 1.04 1.64 2.26 3.9.9 6.52-3.41 6.6-2.12.04-4.24.11-6.36.03-3.14-.12-10.06-7.04-9.16-9.8.65-1.99 3.11-3.51 5-4.92.81-.6 2.23-.4 2.44-.43zM217.81 63.43c-2.95-1.8-5.85-3.25-8.37-5.19-1.89-1.46-1.58-3.96-.02-5.27 1.26-1.06 3.82-1.83 5.17-1.25 2.51 1.06 4.74 3.02 6.72 4.98.82.82 1.32 2.95.82 3.85-.65 1.16-2.44 1.7-4.32 2.88z"/>
</svg>
