<svg xmlns="http://www.w3.org/2000/svg" viewBox="0 0 410.23 250.95" xml:space="preserve">
  <path d="M124.54 52.49c-.78-10.57-1.53-21.14-2.35-31.71-.42-5.42-1.17-10.83-1.34-16.26-.13-4.24 2.74-5.55 6.48-3.7 1.42.7 3.32.45 5 .64 14.62 1.65 29.45 2.3 43.76 5.38 6.76 1.46 13.92 6.42 18.39 11.86 7 8.51 5.81 21.9-7.6 28.85A103.3 103.3 0 0 1 149 58.88c-1.37.13-2.69.77-4.54 1.32 9.04 4.9 17.32 9.63 25.81 13.95 18.62 9.49 37.36 18.72 55.96 28.25a6.12 6.12 0 0 1 2.78 4.46c.06 1.78-.89 4.27-2.26 5.2-.99.67-3.44-.53-5.11-1.22-4.24-1.76-8.54-3.45-12.58-5.61-15.99-8.57-31.88-17.33-47.81-25.99-6.25-3.4-12.48-6.85-18.85-10-1.97-.97-4.38-1.04-7.81-1.78 1.02 7.07 2.22 13.19 2.72 19.37.81 10.03 1.3 20.1 1.57 30.16.04 1.41-1.93 2.88-2.97 4.32-1.22-1.06-3.27-1.95-3.52-3.2a238.89 238.89 0 0 1-2.55-17.51c-1.35-11.2-2.52-22.43-3.97-33.62-.15-1.17-1.75-2.11-2.57-3.23-1.52-2.1-3.91-4.16-4.13-6.41-.16-1.66 2.55-3.6 3.97-5.42.45.17.92.37 1.4.57zm8.63-.95c1.08.06 1.88.16 2.67.13 12.86-.49 24.97-4.32 36.95-8.54a72.96 72.96 0 0 0 12.1-5.78c5.06-2.91 7.19-7.69 4.41-10.93-3.42-3.98-7.37-8.45-12.04-10.23-14.12-5.39-29.15-4.71-44-4.23-.99.03-2.79 1.88-2.74 2.79.74 12.24 1.72 24.45 2.65 36.79zm107.81 181.6c-2.42.11-4.79.94-6.42.18-12.92-6.03-25.66-12.42-38.52-18.58-5.72-2.74-11.6-5.15-17.38-7.76-4.66-2.11-9.23-4.4-13.93-6.41-1.58-.68-3.43-.73-6.27-1.29l2.93 27.85c.51 4.95 1.28 9.91 1.31 14.87.01 1.87-1.75 3.75-2.7 5.62-1.82-1.42-4.43-2.49-5.26-4.35-1.16-2.61-1.13-5.81-1.37-8.77-1.02-12.37-1.9-24.76-2.99-37.13a12.55 12.55 0 0 0-1.79-4.94c-1.92-3.31-4.47-6.42.22-9.65.63-.43.6-2.17.49-3.27-.59-6.09-1.04-12.21-2.05-18.24-.76-4.6.01-9.43-4.7-13.3-4.07-3.34-3.01-6.62 1.09-10.05.69-.57.73-2.2 1.4-2.46 1.82-.7 5.19-1.75 5.52-1.2 2.13 3.54 5.46 2.86 8.45 2.93 16.2.35 32.15 2.58 47.41 7.92a44.86 44.86 0 0 1 16.07 10.18c7.72 7.6 5.21 18.91-4.74 23.26-11.31 4.93-22.82 9.23-35.47 9.7-5.08.19-10.1 1.89-15.47 4.09 3.28 1.53 6.55 3.11 9.85 4.59 14.02 6.26 28.05 12.5 42.09 18.72 8.28 3.67 16.54 7.37 24.9 10.87 2.54 1.07 3.98 2.16 2.9 5.17-.49 1.36-.4 2.94-.77 6.19l-4.8-4.74zm-83.32-49.77c6.39-.7 12.12-1.69 17.87-1.88 10.53-.34 20.15-3.77 29.59-7.91a89.12 89.12 0 0 0 10.78-5.94c2.96-1.82 3.21-4.14.25-6.29-2.55-1.85-5.2-3.56-7.82-5.3-8.57-5.68-18.72-5.85-28.3-7.76-7.01-1.4-14.31-1.37-21.5-1.76-2.62-.14-4.93.41-4.48 4.17 1.26 10.33 2.3 20.67 3.61 32.67zm142.37-108.9c-3.6-7.96-6.83-15.18-10.13-22.36-4.91-10.66-10.06-21.22-14.62-32.03-.78-1.84.13-5.72 1.63-6.9 2.43-1.91 4.28.39 5.56 2.94 6.15 12.28 12.54 24.45 18.65 36.76 2.94 5.92 5.42 12.07 8.12 18.12 3.27 7.34 6.65 14.63 9.78 22.03 1.01 2.38 1.23 5.09 2.06 7.56.53 1.58 1.89 2.94 2.2 4.53.47 2.42 1.38 5.68.25 7.28-1.8 2.57-4.58 1.42-6.67-.95-1.52-1.72-3.42-3.08-5.09-4.67-1.21-1.16-2.31-2.43-3.46-3.66l3.77-2.55c-2.22-4.94-4.68-9.96-6.73-15.14-1.23-3.11-3.48-3.47-6.25-3.49-9.34-.07-18.7.07-28.01-.45-4.21-.23-6.16 1.08-7.03 5.03a203.88 203.88 0 0 1-4.17 16.35c-.44 1.42-2.35 2.38-3.59 3.54-1.25-1.72-3.58-3.48-3.53-5.16.14-4.41 1.22-8.81 2.11-13.18 4.41-21.74 11.27-43.04 11.86-65.5.04-1.52 2.29-2.98 3.52-4.46 1.25 1.31 3.32 2.47 3.6 3.96.72 3.87 1.39 8 .77 11.82-1.75 10.78-4.14 21.46-6.32 32.17-.69 3.39-.93 6.58 3.73 6.88 9.01.59 18.06 1 27.99 1.53zM67.24 250.95l-4.2-3.33v1.09c-2.4.3-4.78.73-7.19.88-3.73.24-7.47.33-11.2.4-11.05.22-22.11.55-33.16.52-4.6-.01-5.17-3.89-5.89-8.42 1.97-.3 3.91-.83 5.86-.85 7.15-.08 14.3-.03 21.45.07 2.82.04 3.9-.99 3.45-3.91a4083.33 4083.33 0 0 1-6.87-45.26c-1.75-12.14-3.34-24.3-4.82-36.47-.31-2.59-1.02-4.21-3.86-3.87-4.39.53-8.84.88-13.12 1.89-2.65.63-5.22 3.08-7.02-.9-1.73-3.81.02-8.59 3.62-9.5 3.52-.89 7.19-1.77 10.78-1.72 7.87.1 15.72.81 23.58 1.23 1.63.09 3.41-.36 4.87.15 2.12.73 4.08 2.01 5.93 3.31.32.22-.21 2.47-.4 2.48-2.06.08-4.13-.1-6.38-.22-2.08.98-4.74 1.9-7 3.42-1.18.79-2.51 2.72-2.35 3.95 2.26 17.26 4.73 34.5 7.24 51.73 1.41 9.69 3.2 19.33 4.43 29.04.6 4.73 3.68 4.67 7.1 5 4.9.48 9.81 1.06 14.63 2.03 2.77.54 2.88 2.85.52 7.26zm263.78-28.14c-7.08-1.03-9.91-3.34-10.73-8.8a24.2 24.2 0 0 0-4.65-10.86c-1.4-1.8-5.01-2.51-7.67-2.61-8.72-.31-17.46-.12-26.37-.12-2.42 7.76-5.01 16.57-8 25.25-.53 1.54-2.69 2.52-4.1 3.76-.92-1.37-2.73-2.83-2.6-4.08.62-6.01 1.35-12.06 2.8-17.91 4.04-16.38 8.52-32.66 12.59-49.03.43-1.75-.89-3.87-1.01-5.84-.16-2.53.06-5.09.12-7.64 2.36.54 5.43.3 6.95 1.73 12.78 11.97 23.65 25.43 30.9 41.56 2.52 5.6 5.89 10.87 7.9 16.63 1.88 5.44 2.5 11.32 3.87 17.96zm-20.14-31.27-18.17-28.72-1.61.6-6.44 26.55c8.56 1.05 16.71 2.37 26.22 1.57zm65.74-86.38c.68-5.6.75-10.48 1.92-15.08 3.12-12.29 6.34-24.57 10.21-36.63 3.58-11.17 7.98-22.08 12.15-33.06.56-1.48 1.62-3.15 2.92-3.89 1.35-.77 3.49-1.07 4.89-.53.9.34 1.8 2.79 1.46 3.9-1.76 5.64-4.03 11.12-5.93 16.73-4.13 12.19-8.35 24.37-12.16 36.66-3.72 12-7 24.14-10.44 36.23-.32 1.11-.14 2.4-.61 3.42-.56 1.21-1.46 2.98-2.4 3.1-1.12.14-2.83-.92-3.57-1.96-2.1-2.91-.27-8.08 1.56-8.89zm-2.45-37.01c.18 1.89.65 3.81.44 5.64-.12 1.02-1.23 2.27-2.21 2.7-.65.29-2.31-.41-2.75-1.14-5.02-8.33-10.41-16.5-14.62-25.23-2.99-6.2-6.97-12.67-4.44-20.21.5-1.5 1.92-2.69 2.91-4.03 1.41 1.2 3.79 2.22 4.06 3.63 2.44 12.85 9.69 23.4 15.88 34.47.68 1.21.95 2.65 1.42 3.99l-.69.18z"/>
</svg>
