<svg xmlns="http://www.w3.org/2000/svg" viewBox="0 0 935.9 482.6" xml:space="preserve">
  <path d="M923.9 455.5c-6.2-3-9.3-5.2-12.6-6.1-12-3.2-24-6-36-9-3.5-.8-7-1.5-10.5-2-1.2 0-3.1.4-3.6 1.3-3.3 6.2-6.3 11.3-15.2 7.8-3.2-1.2-7.9 2.2-11.8 2.2-18.5 0-37-1-55.3-.9-19.8.2-39.6 1.6-59.4 2-15.9.1-31.8-.7-47.7-.7a4563.5 4563.5 0 0 0-116.2 1.5l-57.4 1c-11 0-22-.4-33 0-7.7.1-15.3 1.5-23 1.8-3.8 0-7.7-2-11.4-1.7-15 1.3-30 3.8-45.2 4.7-10.4.6-21-1.1-31.4-.8-12 .3-24 1.7-35.9 2.6-3 .2-6.3.2-9.3-.4-13.3-2.4-25.4 4.3-38.3 5-14.6.7-29.3 1-43.8 2.2-25.5 2.2-50.8 4.8-76.2 7.4-5.8.6-11.6 2.2-17.4 2.4-14.8.6-29.7.4-44.5 1-4.5.2-9 2.2-13.6 2.9-8.2 1.2-16.5 3.3-24.7 2.8a92 92 0 0 1-27.7-6 18.7 18.7 0 0 1-9.5-12.1A726 726 0 0 1 5 376.8c-.5-16-.3-32-.1-48.1.2-18.8 1-37.6.8-56.5-.2-21.8-1.6-43.5-2-65.4-.2-12 1-24 1-36.2 0-13-.5-26-.9-39L1 38.3c-.2-5.7-1.6-11.6-.4-17C1 18.3 6 16.4 9 14c1-1 2.3-2 2.8-3.2 1.2-3.3 1-8.5 3.3-9.8C18-.7 22.8 0 26.4 1c9 2.2 17.5 6.4 26.5 7.6 13.2 1.7 26.6 1.8 40 2.1 25 .6 50.2 1.2 75.3.9 18-.2 35.9-1.8 53.9-2.6 3.2-.1 6.5 1.8 9.7 1.7 29.1-1 58.3-2.8 87.4-3.3 22-.4 43.9.9 65.8 1.4 12.8.3 25.5.8 38.3.8 6 0 11.9-1.6 17.9-1.6 4 0 8 1.9 12 2a7215.4 7215.4 0 0 0 145.2 4.5c28.7.5 57.4.6 86.1 1 29.1.5 58.2 1.6 87.3 1.8 11.7 0 23.5-1.9 35.3-2 8.7 0 17.4 2 26.1 2.3 9.8.3 19.7-1.1 29.5-.5 11.6.6 23 3 34.6 3.8 2 .1 4.2-3.7 6.6-5.1 6.2-3.8 12.9-6.3 14.6 4 3.3 20 6 40.2 8.7 60.4 1.9 14.5 4.4 29 4.6 43.4.3 20.4-1.9 40.9-2 61.3-.2 19.2 1.2 38.4 1 57.6 0 14.4-2.1 28.8-2.2 43.3 0 5.4 3.6 10.8 4.8 16.4 1 4.4 1.4 9.1 1.5 13.8.4 21 1 42.2 1 63.3 0 15-1.3 30-1.6 45-.2 6.2 2.4 13 .8 18.6-1.5 4.8-7.2 8.3-11.2 12.6zM909 72.9h.8c-1.3-9.8-2.4-19.6-4.2-29.3-.5-2.3-3.6-5.6-5.7-5.8-9-1-18.1-1.3-27.2-1.1-15 .2-30 1.5-45 1.3-16-.1-31.9-2-47.9-2-38.3-.2-76.7.3-115 .4-11.3 0-22.6-.2-33.8-.6-20.4-.7-40.8-1.9-61.2-2.3-14-.2-28 .7-42 .7-22.6 0-45.2-.1-67.8-.5-4.2 0-8.5-1.7-12.8-1.9-10-.5-20.2-.3-30.3-.8-9-.4-17.8-1.6-26.8-2-14.8-.4-29.6-.2-44.4-.6-14-.5-27.9-1.8-41.8-2-16 0-32 .9-48 1-4.3.1-8.6-1.5-12.8-1.3-3.7.3-7.1 3-10.8 3.1-7.4.5-15-.4-22.4 0-16.9.9-33.7 2.6-50.6 3.3-12 .4-24.2-.2-36.2-.4l-50.3-1.2c-4 0-8 .2-11.8-.3a837.8 837.8 0 0 1-34.2-5.2c-3.3-.6-6.4-2.5-9.6-3.8l.6 10c.5 4.5 1.6 9 1.7 13.6.2 17.4-.2 34.8.2 52.2.3 14.1 1.7 28.2 2.1 42.4.4 12.4-.1 24.9.3 37.3.7 22.4 3.1 44.7 2.5 67-.8 30.9 4.9 61.7-.2 92.6-1.7 10.3-.6 21.2.3 31.7 2 24.7 5 49.4 7.2 74.1 1.4 15.5 10.5 22 23.6 18.3 10.9-3.2 22.5-4.5 33.9-5.6 12.6-1.2 25.4-1 38.2-2 11.4-.7 22.8-2.2 34.3-3.2 5.9-.5 11.9-.3 17.7-1 11.3-1.5 22.5-3.7 33.9-4.9 12.7-1.3 25.6-1.8 38.4-2.6l35.3-1.7c18.2-1 36.3-1.8 54.5-2.9 21-1.1 42.1-2.6 63.2-3.6 18-.8 36.1-1.5 54.2-1.7 29.3-.5 58.7-.4 88-.8 21.8-.3 43.6-1.2 65.4-1.4 12.3 0 24.6 1.2 37 1.2 8.3 0 16.7-1.9 25.1-1.8 20.4.2 40.8 1.3 61.1 1.6 17.5.3 35 .5 52.3-.5 8.4-.5 16.7-3.7 25-5.6 3-.7 6-1.9 9-1.8 6.9.2 13.8.8 20.7 1.6 20 2.1 40.6-7 60.2 4 2.7 1.6 11-.3 11.1-1.1a480 480 0 0 0 1.7-42.9c0-9-2.4-18.2-2.4-27.2-.2-20.5 1-41 .5-61.5-.5-17.8-3-35.6-3.7-53.4-.5-14.6.6-29.3.6-43.9 0-20.9-.5-41.8-.4-62.6 0-10.2 1.3-20.3 1-30.5-.2-10.7-1.5-21.4-2.3-32z"/>
</svg>
