<svg xmlns="http://www.w3.org/2000/svg" viewBox="0 0 3091.1 907.6" xml:space="preserve">
  <path d="m2078 348-12 31-4 2h-16l-79 5-18-3-12 3-2 1-30-5h-5l-8-1-4-2-88 1c-10 0-19-4-29-3-23 0-47 3-70 4l-15-3c-23 1-46 5-69 5-24 0-48-3-73-3-10-1-20 3-29 3l-36-3-41 2-23 2c-17 1-33 1-49 3-6 0-14-10-17 2-3-1-6-3-10-3-10 1-21 4-32 4-10 0-20-3-30-2-10 0-19 3-29 4l-19-3-20 1-27 3h-8l-7-5-3-3-4 1 1 3v3l-5 1-27 3-8-1-2-1-40 1-3 3c0 4 0 10 2 12 4 5 10 8 15 12 3 2 5 6 7 10l18 34 20 32c6 10 9 20 14 30l15 24 2 2 17 31c2 6 2 14 5 20 2 5 7 8 10 12l3 7 12 27 5 15 9 24c4 10 8 19 13 27l19 34 10 24 17 34 1 3c-1 13 7 21 15 30 2 1 1 4 2 6l4 5c15-4 10 9 13 15 5 9-7 13-5 21l-3 2-8 2 6 3 1 2c-4 3-7 9-11 10-6 0-13-2-17-6-6-6-9-15-13-22l-11-21-6-19-17-33-14-38-13-29c-7-13-17-26-24-40-3-6-3-13-5-20l-11-21-12-25-14-28-19-42c-5-10-9-20-15-29-9-12-20-21-20-38 0-2-5-4-6-7l-20-30-13-18-7 5-18 31-2 4c1 12-6 17-15 22l-2 2c1 7 3 12-7 16-4 2-6 12-9 18l-8 11-21 43-5 6c-5 8-15 16-13 22 3 13-15 15-11 26 1 2-6 6-8 10l-16 32-18 23-1 1-5 19c-1 4-3 6-5 9l-3 3c-5 9-11 18-15 28l-13 33-16 39c-3 6-19 2-22-3-2-5-8-9-9-15-1-3 2-8 4-13l4-10c1-8 0-15 2-22l11-25 3-5 5-8v-1l13-17 3-2 17-45 9-15 19-36 15-23 10-22 9-15 23-44c1-2 3-2 5-3l3-2-2-3v-4c6-6 13-12 18-20 8-12 15-25 22-39l11-24c4-7 10-12 14-18 1-1 3-5 2-6-2-4-5-8-9-10l-21-3c-9-1-18-4-26-4-6 0-11 3-17 4l-5-1c-5-4-32-3-39 0-3 1-7-3-10-3l-122 2-146 2h-27c-9-1-19-5-29-7l-16 2-8-1-8-1-34-3-12 3-46-3c-9-1-17-5-26-7l-9 3-49 1h-12c-11-2-23-6-34-6-9-1-19 3-28 5l-3 1-16-3-52-3h-42c-11 0-23-3-35-3l-18 3-26-2-23 2c-6 0-12-3-19-3-3 0-8 2-11 5-8 8-23 5-26-6l-2-2c-16-2-19-13-19-26 0-3 4-5 5-8 3-5 5-9 6-14v-27l-3-10-1-3v-28l3-64v-21c0-12 3-25-1-36-6-13-1-21 8-27 4-2 12 1 18 1l31 4 85 3 23-1h18l44-1 87-1c14-1 27-4 40-4l39 2 15-3 58-1c9 0 17 3 25 4 5 0 9-4 14-4l12 2 9-3 34 3c9 0 17-2 25-3l16 2 2 1c22 0 43 1 64-1 11-1 20-1 30 3h2c5-12 10 0 14 0h10c7 0 13-3 20-3l27 4 18 1 9 2h36l101 2c10 1 20 4 29 4l61-1c11 0 22 3 34 4h38l17-1 67 4 13 3c4 0 8-4 12-4 21 1 43 4 64 4l153-2 20 3h24c3-1 6-4 9-4l42-1c7 0 15 4 22 3l25-3c3 0 7 4 11 4l22-4 16 2 6 1 167-2 88-1 24-1c22 1 44-1 64 5 22 7 42 4 63 6l40 8 3 4 3 15c1 2 0 5-1 6l-18 14-4 5c2 5 5 13 9 13 16 3 33 4 49 5l48 3c17 1 36 0 52 5 11 4 27-4 35 11l2 2c-2 4-4 8-7 10-6 4-12 7-19 8l-26 6-24-3-24 2c-9 0-19-3-28-4h-14l-2 1c-6-3-13-5-18-9-3-2-3-8-5-13l-2-1-1 2v10l-2 3-7 4c-7 1-8 3-4 9 2 1-1 6-2 10l1 6c11 5 6 12 3 19v5l4 2 70-1c6 0 13 3 20 4a417 417 0 0 0 39 4c16 0 31-2 47-1 6 1 12 6 18 9 1 1 0 5-1 7-4 5-3 17-16 14-4-1-10 3-15 3l-54 1c-7 1-14 5-21 5l-59-4h-18c-10 2-10 3-7 18zm-41-30 1-1-5-25-4-10c9 0 4-4 3-9l-4-52c-1-3-4-6-4-9l-2-25c0-3-3-9-6-9-11-2-21-12-33-5h-2c-6-4-11-13-19-3l-5-1-10-3h-32c-7 0-14-3-20-3-8 0-15 4-22 4-8 0-16-3-23-3l-40 3-19-2-24 3-18-3c-12 1-24 4-36 4-11 0-22-3-33-4l-96-3-49 1-72 1-49-3c-11 0-21 3-32 4h-20l-39-3h-42l-23 5c-7 0-14-3-21-4h-37c-5 0-9-3-13-3-9 0-17 3-26 4-5 0-11-3-17-4l-70 1c-17 0-34-3-51-4h-20l-57-3-83-3-95-3-41 1h-3l-21-4-90-2c-10-1-21 2-31 3h-5l-13-3-27 3c-14 0-28-2-41-3l-26 1-56 1c-6 1-12 4-18 4-4 0-9-4-14-3-11 0-22 4-33 4-14 0-27-3-41-3l-21 3-72 2c-6 0-12 4-18 6l-3 1c-11-2-22-6-34-6H89l-9-3-25 4c-2 1-3 7-3 10l-1 33c0 10-2 19-3 29l3 6-2 10v71c0 3 0 6 2 9 1 3 4 5 6 5 6 0 13-3 20-2 11 1 21 5 32 7h32l81-2c24 0 48 3 72 4l42-1 40-4 3 3 3 5 9-2 8-2 9 3 36 1c12 1 24 6 36 7 20 1 39-1 59-1l34 4 29-1c4 0 7 3 10 3h45l19-1 11-1h13l7 1h15l27-1h21l9-3h22l25 3 88 3h22l41 4c11 0 22-4 33-4l30 3 33 3c8 0 17-3 25-4 5 0 11 4 16 3 7 0 14-3 20-3l30 3c4 0 8-3 12-4h19l41-1 53-1 32-4 37-1h2c9-1 17-3 26-3l30 3c3 0 7-5 11-5l98-1 85-1 57-1 18 3c3 1 7 0 10-1l9 1 12-1 17-1 3 1c9-1 18-3 28-2 10 0 19 2 29 3l15-1 105 3h30l31-1 58 4c2 0 5-3 5-4v-22zM2537 36h54l55-1 57 4 5-3-5-5c-1-2-3-3-3-5 1-21 24-33 42-22 5 3 10 4 15 5l38 4 21 9 9 3 28 10c8 3 15 8 23 10 11 4 24 27 20 38-1 3-6 3-8 6-10 10-17 23-35 24-15 1-30 8-45 12l-25 5-46 8c-10 1-25-11-26-21 0-3 8-6 13-8l28-11c5-2 9-5 15-6l30-4 35-13 1-3-3-2-25-9c-6-2-12-6-18-6-10-2-10-1-7 7 4 12-5 28-17 26-11-2-22-8-34-10-7-1-15 2-23 2l-63 1c-6 0-11-4-17-3-15 0-32 0-46 5-11 3-16-1-23-4-3-1-7 1-11 2l-5 2h-27c-13 1-19-4-23-17-4-9-2-15 4-20 6-4 14-7 21-9h21v-1zM2937 293h58c12 1 24 5 36 7h8l1-14-3-12c-1-8-4-16-4-24 0-7 3-13 5-20l-1-3-39 7-9 1-43-4-59 1-49 5c-12 1-23-18-19-29 1-1 3-3 5-3 11-5 22-10 34-13 6-2 12 0 18-1 11-1 21-4 32-4l28 3 65 3 42 4c3 1 7 3 7 5 2 10 10 6 16 7 3 1 5 4 7 7l5 16v19l12 42v27c-1 9-3 18-7 26-2 5-6 9-11 12-2 2-8 0-10-2l-13-19c-1-2-3-3-5-3l-72 1-44 1c-17 2-34 5-51 4-5 0-10-9-15-14l-1-4c-3-6-1-8 6-10l24-11 3-2 43-6zM2445 284h17c19 0 37 8 55 15 8 3 17 3 26 5l6 2c0 6 1 14-2 17-5 5-12 7-19 9-3 1-6-2-9-3h-39l-17 1c-5 0-10-2-14-3l-12 1-10 2h-13l-54 1c-7-1-11-20-4-25 9-5 18-10 28-13l60-12 1 3zM2345 193c31 0 59-2 87 0 17 1 34 7 51 10l6 1c3 2 9 6 8 7-2 5-5 11-9 14-6 4-13 6-20 8l-7-3-5-4-28 4h-30l-33 1-27 4c-3 1-8 1-10-1-8-8-21-17-8-30 6-6 17-8 25-11zM2666 232h-38l-23 1-18 3c-11 0-24-13-22-24 1-6 3-13 13-13l69-5c6 0 12 3 18 4 7 0 15-2 22-1s13 5 20 6c6 2 12 1 18 2 5 1 13 0 7 10l-4 17c0 1-1 2-2 1l-24-1h-36zM2706 339c-12 0-24-1-36 1-14 1-28 5-42 7-5 1-11-1-16-2h-3c-8 5-10-1-14-6-2-5-8-8-8-13-1-4 2-10 5-14 2-3 7-4 11-5 22-2 45-5 67-4 12 0 23 8 35 10 10 1 21-1 32-1l12 3c2 1 3 7 1 8l-19 11c-8 3-16 4-25 6v-1z"/>
</svg>
