<svg xmlns="http://www.w3.org/2000/svg" viewBox="0 0 224 184">
  <path d="m224 91-2-23c-2-11-8-18-16-23-6-4-11-8-14-14-4-5-8-9-13-12l-18-6-7-1c-5-2-9-5-14-6-10-3-21-6-32-4l-2-1c-3 0-7-2-10-1-13 4-27 8-39 14a101 101 0 0 0-36 26l-4 4-2 4-9 15-6 23 1 15v1l6 17c1-1 3 9 5 11l5 10 7 6 5 10v1l2 1c5 5 8 11 18 10h1l10 7a1571 1571 0 0 0 45 9l22-1 20-4 7-2 4-2c8-3 33-12 35-17l22-29 6-16c2-2 3-21 3-22Zm-13 35c-2 0-20 24-21 25-1 2-1 5-3 5l-12 6c-4 4-11 4-16 5l-4 2-13 4h-2l-11 3-8-2-3 2-14-1h-4c-4 1-9 0-13-1-5-3-13-1-13-3-1 1-14-3-15-4-1 0-4-5-8-5l-3-2-17-12c-3-8-10-14-14-21l-3-7c-2-4-4-11-8-16h1V86c1-4 6-22 10-27 2-3 9-11 11-16l12-11 18-9c4-3 7-5 12-6 4 0 7-4 11-5l17-2 14-1 14 2 21 13 17 4 11 6c3 0 17 9 21 11 9 5 14 15 18 24l3 29c0 5-4 24-6 28Z"/>
  <path d="m104 125-4 1-17-13c5 0 12-18 10-25-3 3-7 6-8 9 0 4-2 6-4 9l-3 1-3-4v-1l-6-10-6-12-3-8c-6 5-5 14 1 17-1 3 3 11 9 15l4 5c4 8 1 13-5 18l3 4 3-3c4-4 5-10 12-7l5 4 8 6 5-2-1-4Zm80-34c-5-1-9 3-10 7l-8 16c0 8-1 0-2 0l-12-24c-5 10 0 17 2 20l6 11c-4 4-5 7-5 9l5 3 3-11 7 2 6-1 2-4-2-1-6 1 4-10a201 201 0 0 1 12-16l-2-2Z"/>
</svg>
