<svg xmlns="http://www.w3.org/2000/svg" viewBox="0 0 239.6 116">
  <path d="M121.3 66a72 72 0 0 0-9.3-.1c-5.2.2-10.5.6-15.8 1-.4.6-7.5 0-10.2 2.9l2.8 2.3c1.5 1 10.5-.7 11.2.4 3-.7 21.5-1 22.6-.8.7 0 1.8-1 2.4-1.8.3-.4.1-1.6-.3-2-1-.8-2.2-1.7-3.4-1.8Zm-34-60.8c-.9.7-1.8 1.2-2.2 2L79 19.4c-1.2 2.3-8.7 20.9-9 21.4-.6.9-.6 2.1-1.2 2.7a35.2 35.2 0 0 0-6 8.6 29 29 0 0 1-2.8 4.5l-4 5c-.8 1.2-2.2 4-2.5 4l-1 5.2c-.7 1.3-1.5 2.4-1.8 3.6-.7 2.5-1.6 5.1-1.6 7.7 0 .5-2.6 8.9-2.7 9.3l-.7 2.3-.9 2.6-.8 3.1-.3-.3c-.4-1.3-3.3-5.8-4-7.7l-3-7.3c-1-2-1.8-4.2-2.6-6.3l-.9-2.3L29 64.6c-.9-2.3-2-4.5-2.8-6.9-1.5-4.4-2.8-8.9-4.4-13.3-.8-2.3-2-4.4-3-6.6-1.3-3.3-2.3-6.7-3.6-10L10 15.1 5.7 5.4A35 35 0 0 0 2.8.5C2.6.1 1.6 0 1.3.1.7.5-.1 1.5 0 2a28 28 0 0 0 1.8 5c1.1 2.5 2.5 5 3.5 7.5.9 2 1.2 4 2 6l5.6 14.9 5.3 14.4 7.6 20.6c1 3 2.3 5.8 3.7 8.6l14.6 36.7c.2.3 1.5.4 1.5.3.5-1.2.8-2.7 1-3.5l.5-2c.8-2.8 1.7-7.2 2.6-13.8C50 95 52.5 91 52 89l5.5-18.5c0-2.9 4-7.3 4.3-8.6 2.2-2.8 12-19.5 13.6-22.2 0 0 14.1-30.6 12-34.5ZM239 51.3c-.7-1.5-1.7-3-1.6-4.5.3-3.4-4.9-7.8-5-7.8-.3-1-7.2-6.2-7-6.5-1.2-.8-2.3-1.7-3.6-2.4-1.1-.6-2.5-1-3.7-1.4 0 .4-3-.1-5.9-1l-5-.9c-.3.5-7.7.1-11.2 1.2-1.7.6-7.6 2-7.8 1-1 .5-1.7.6-2.2 1l-1.5 1.1c-.9 0-2.7 0-3 .2-1.7.8-3.4 1.7-4.9 2.7-.7.5-1 1.6-1.5 2.5l-1.3 8.2c-.2 2.5-.5 5-.3 7.4.2 2.8 1.2 5.5 1.2 8.2 0 2.3.2 7.5.1 7.9-.4 2 1 25.1 1.4 26 .7 1.7 12.4 4.3 14 3.3 1.2-.8 12.8-2 14.3-2.8 1-.6 7-2.4 7.1-2.3.6.2 1.7.2 2.1-.2.6-.5 3-2.1 3.8-1.7 1.2-1 13.8-9.4 16.4-16.5.4-.4 2.2-5.9 3-7.9l2.3-6.4h-.2c1-2.5.7-6.8 0-8.4Zm-62.2-7c.7-3.5 8.7-10.6 9.2-10.5 1.5 0 3-.3 4.6-.7 1.2-.2 2.4-1 3.5-1 2.5.2 12.9-1 13.1-1.1 1-.6 8 0 10.7-.3 0 2.3 14 12.7 14 13.3l3 9.4v8.3l-.6 2.5c-.8 1.5-.5 3.7-2.7 4.4 0 0-3.4 5-2.9 5.7.3.4-10.4 8.2-12.3 9.6-.9.5-3.4 2.7-3.7 2.4-.3.7-4 3.4-4 3.3-.4-.3-1.5 0-2.2.2-.5.1-1 .6-1.5.6-2.8 0-16.1 2.2-19.3 2-1.8-.2-4.4 0-4.8-2.9-.6-4.3-1.3-8.6-1.7-13-.5-5.4-.8-11-1-16.5"/>
</svg>
