<svg xmlns="http://www.w3.org/2000/svg" viewBox="0 0 875 404.4" xml:space="preserve">
  <path d="M577.4 403.5c-.9 0-20-.6-22.8 0-2.6.8-5.4.8-8.2 1-1 0-2-.1-2.8-.6-1-.7-1.9-2.7-2.7-2.6-1.5 0-2.1-.6-2.9-1.4-1-1.1-2-4.7-2.1-5-.4-.8-1-1.6-1-2.2 1-6.9-1.8-13.6-.6-20.6.4-2.4-.7-21.4-.8-22.7-.4-7 0-14-1.5-21-.5-2.8-.6-5.7-.5-8.5.2-2.7.3-5.4-.5-8-.4-1.3 1-7.3.3-9.8-.3-1-.6-2-.4-2.8.6-2.9.8-5.7-.8-8.3 1.5-5 1.3-20.4 1.2-22l-.2-3.5c-.2-2.4-.6-5 1.3-7 .5-.6.5-1.6.6-2.5.6-5.2 2.3-10.3 3.8-15.3a61 61 0 0 1 3.9-9.7c.8-1 1.8-2 2-3.2.9-4.9 4.3-8 7.4-11.3l5.8-7.2c1.4-2.3 4-3.8 5.7-6 1-1.4 5-4.7 5.6-6.2 1-2.7 1.8-5.6 3.2-8.2 1.3-2.7 1-5.9 3.1-8.2 1-6.3 3.6-12.3 3.3-18.8v-.5c.4-3.3 2-6.8 1-9.6-.9-3.1-1.2-6-1-9 .3-5.7-.3-11.4.1-17 .4-5.4-.8-10.8-.9-16.2 0-4.6.5-9.1.6-13.7l-.2-6c0-1.1-.1-2.4.2-3.5.5-1.8 2.1-3 3.6-2.7 2.6.4 3.9 1.8 4 4 .4 4.2 0 8.3.8 12.4.4 1.6 0 3.4-.2 5.3.6-.4 1-.5 1.1-.7.4-2.3.8-4.7.3-7.1 2.3-1.8 1-4.4 1.4-6.5.3-1.2.3-1.8-.8-2.3-.2-.1-.4-.6-.4-.8 1.6-7.7-2.6-13.6-6-19.7l-.2-1.1 3.3-1.8c.7-.2 1.6-.5 2.1-.2 2.3 1.1 4.6.8 6.9.7 3.7-.2 3.7-.2 4.3-3.9.2-1 .6-1.9.9-2.8.3-1 2-1.7 1-3s-2-2.5-4-2.9c-3.1-.6-4.6-4.3-3-7.3 1.2-2.1 2-3.8.3-6.2-1.8-2.4.2-5 1.6-6.7 1.7-2.2.5-5.3 2.9-6.9-.4-.5-.6-1-1.1-1.4-1-.6-2.2-.8-2.9-1.6-1.6-1.9-1.5-2.6.4-4.5l2.4-2.4c.3-.4.5-1 1-1.1l11-3.2c3-.9 5.4 4.5 3.6 7.3-1.4 2.2-3 4.3-4.5 6.5-1 1.5-1.6 3.3-2.6 4.8-2.1 3.2-1.5 6.7-1.1 10.1.2 1.4 1.6 1.8 2.5.6 1.1-1.5 2.3-2 4-2 1.7 0 3 .2 3.5 2 .5 1.4 1.1 2.5 0 4a131 131 0 0 0-6.4 11.6c-.8 1.7-.8 3.8-1 5.7 0 .4.9 1.1 1.4 1.2h4c.9 0 1.4.4 2 .7 4.5 2 9.9.8 10.8 3 .2.2.2.5-.5 2.5-2 5.8-2.2 7-2.9 9-.5 1.7.8 2.7 1.9 3.3 3.5 2 4.1 4.7 2.9 8.3-.5 1.4-.2 3 0 4.5l2 13.5c1 7.6 2.8 15.1 1.5 22.9-.1.7.3 1.5.4 2.3.3 2.3.7 4.6.7 7 .1 2.6-.5 5.2-.2 7.8.8 6.2.3 12.4.5 18.6.2 4.5 1.9 8.2 3.5 12 2 5.3 6 9.1 9 13.6 1.3 1.7 17.6 22.7 18.4 24.2 2 3.7 7.3 26.6 7.3 28.3 0 7.4.4 14.7 1 22 .5 6.3.5 12.6.7 18.8 0 1-.2 2-.4 3a45.1 45.1 0 0 0-.5 16.8c.3 1.9-.4 3.9-.4 5.9 0 6.4-.2 12.9.2 19.3.4 5.5-.8 11 .6 16.4.2.7-.3 1.6-.6 2.4a9.7 9.7 0 0 0-.6 6.6c.3 1 .3 2 .1 3-2 8.7-.1 17.5-1 26.3-.1 2.6 1 5.3 1.3 8 .2 1.4.4 3 0 4.4-.1 1-1 2.5-1.8 2.6-4.5.9-8.5 3.7-13.4 3.2-2.6-.3-7.9-1.2-9.6-1.5a275.5 275.5 0 0 0-33.6.6c-2.5.5-31.1.6-32.6.4zm29-306.1-14.6 2.7c-.6 0-1.5.8-1.7 1.4a14 14 0 0 0-.6 3.9c-.2 4 0 8-.5 11.8-1.5 9.8-3.4 19.6-3 29.6.1 2.4.7 5 .4 7.2-.4 2.6.4 5 .3 7.6-.3 4.4 0 8.8 0 13.3 0 1-.6 2.1-1 3.2-.1.6-.7 1.3-.6 1.8 1 3.5-.3 7.3.8 10.7 1 2.8 0 5.4.4 8.1.4 2.5-1 3.7-3 4.6-2.8 1.3-5.6 3.1-8.6 3.7-3.3.7-5 2.7-6.3 5.1-5 9.5-10.9 18.5-14.7 28.5-1.2 3-3.2 5.8-4.2 9-2.7 9.1-5.1 18.4-7.5 27.6-.6 2.2-.6 4.6-.5 6.9.1 2.7 1.8 5.5-.4 8.2-.3.3-.2 1-.1 1.4.6 2.6.7 5.1.5 7.7a5 5 0 0 0 1 3.2c.7 1 .7 1.6.4 2.6-.6 2.4-1 4.7.2 7.2.6 1 .2 2.6.2 4l-.2 25.8c0 5.5.3 11 .2 16.4 0 10.6 1.1 21.2 1.8 31.8 0 .8.7 2.1 1.3 2.3 1.6.5 3.3.8 5 .6 3-.4 5.9-1.2 8.9-1.8 2.4-.5 6 .6 7.4.5l6.1-.4c2 0 19 0 21.7 1.2.8.4 1.9.2 2.9.2 4.8.3 9.5-.8 14.3-.8 1.6 0 8 0 9.4-.2 5-.7 9.9-.2 14.9-.3 4.9 0 8 1.2 10.2 1.4l5.3.6c2.8.4 5.5-8 5.4-8.4-.2-2-1.1-4.3-.6-5.9.8-2.5.6-4.6-.2-7a7.8 7.8 0 0 1-.3-4.5 128 128 0 0 0 1.9-24.8c-.2-2.3-.8-4.7-.6-6.7 1.2-8.1-.3-16.3.2-24.4.3-4.5.4-26.1.4-28.6 0-1.1.8-12.9.8-14.8 0-2.8.3-5.9-.6-8.4-1-2.7-1-5.1-1-7.7.2-2.3-1.2-13-1.3-16.3 0-1-.4-1.9-.7-2.8l-3-9.4c-1-2.6-2-5.2-3.4-7.6a99.5 99.5 0 0 0-7-10c-.3-.6-1.2-.8-1.9-1.1l-2.9-1.5c-.3-.2-10.2-4.8-11.5-5.8-1.3-1-7.9-6.4-7.4-8 1-3.4 0-6.9.8-10.5.9-3.6 1.8-7.8.1-11.7 0-.3.3-.6.3-1 .6-7.5.3-15-.1-22.4-.4-6.7-.6-13.3-1.2-20-.7-8-.3-16.3-2.4-24.2-.4-1.4-.2-3 0-4.5.2-3.1-.7-5-3.8-6.7-2.6 1.5 1 3.5-.6 5.3-1.4 1.4-2.6 3.1-4.1 5.1l-1.3-4zm-21-27.5L591 84l.3.9c.7 1.1 1.6 1 2.5.4.5-.4 1-1 1.2-1.5 1.4-3.6 2.8-7.2 4-10.8.4-1 .2-1.7-.8-2.5-4.2-2.8-8.4-2.4-12.9-.7zm32.8 3.6a12 12 0 0 0-9.9-1.5c-.6.2-1.6 1-1.5 1.3.7 2.5-.6 4.4-1.6 6.5-1 1.8 0 2.9 2 3.2 4.5.6 6.8-.6 8.6-4.6l2.4-4.9zM65.3 205.7a69 69 0 0 1-1.2-12.1c.2-3.6-.9-7.3-1.4-11-.2-1-1-8.2-1.6-10.9-.7-3.5-.8-7.2-1.3-10.8-.3-1.8-1.5-24.7-3-31.7-.2-1.5-.2-3-.3-4.8-1.2 0-2.3 0-3.4-.2-.8-.1-2-.1-2.3-.6-2.6-3.3-6.4-2.7-10.2-3.5l.4 6.4a47.8 47.8 0 0 1-.4 14.6c-.5.5-1.7.3-2.6.2a18 18 0 0 1-3.3-1c-.4-.1-1-.6-1.4-1.3a5 5 0 0 1-.9-2.5l-.6-9.2c.3-4.5.8-3.2-.5-11.6a41 41 0 0 1 0-11.2c.3-3.1-2.3-6-1.2-9.2.2-.5-.8-1.6-1.5-2.3-1.8-1.6-2.4-3.3-.8-5.4 1.3-1.7 4-2.6 6.2-2l2.3 1c.7.2 1.5.5 2 .3 4-1.9 8.4.2 12.6-.7 2-.4 4.1.2 5.8-2 1-1.1 4.2.1 5.5 2 1.8 2.6 2 5.7 2.3 8.7.4 4.6.6 9.2.3 13.8-.1 1.6 1.2 3.3.8 4.8-.8 4 1 7.6 1 11.5 0 2.5-.7 5-.2 7.3.6 3.1-.4 6.1 0 9 .1 1.6.4 4.1.9 5 .3.6.2 1.5.2 2.2-.1 4.8 1.4 9.3 2 14 .3 3.2 1.3 6.5 1.2 9.9-.1 1.7.3 3.5.5 5.3.4 2.6 1 5.2 1 7.8.2 2.2 1.8 10.4 2 12.5.1 1.8 1 2.6 2.8 2.8 2.1.3 4.2.8 6.3 1.4 2.5.7 3.9 3 3.4 5.7-.1.4-.5 1-.8 1.1l-5.4.3c-.1 0-12-.7-15.2-3.6zm24.7 9.8c1.6-.7 2.6-1.4 3.6-1.6 1.3-.2 2.7-.8 2.5-2 2.3-.2 3 1 3 2.4 0 2.2 8.7 16.6 9 17.8 1.5 5.5 3 11.1 4 16.8.3 1.7.7 7.5.7 9 0 1.7 1.3 18.5 1.3 19.9 0 3.9.6 7.7 0 11.6-.4 3 .3 6.2.4 9.3 0 2 .3 16.8 0 20-.3 2.9 0 12-.1 12.8-.3 4.3-.5 8.6-1.2 12.8-.6 3.5.4 7 .2 10.5 0 2.1.4 4.3 0 6.5-.5 3.1-.4 6.3-.5 9.4 0 1 0 2-.3 3a9.2 9.2 0 0 0-.6 5.6c.4 1.9-1 4.1-1.1 6.2-.4 3.1-.4 6.2-.5 9.4-.2 2.5-2.6 4.4-4.8 3-1.4-1-2.3-.3-3.5-.4-1.4-.1-11.8.7-12.9.8H74.5l-10.4-.3c-1.6 0-17.7.8-24 .3l-6.4-.4c-1 0-2.5.1-2.8-.4-.9-1.6-3.8-1.2-3.5-3.7.1-1.3 4.1-3.7 5.9-3.7 4.7.1 9.5-.4 14.2-.2 4 .1 7.7-.4 11.7 0 3.4.4 7.1-.1 10.7-.3 2.1-.1 4.3.2 6.4.3h2a20 20 0 0 1 9.5-.1c.7.1 1.5-.4 2.3-.5l2.2-.3a43 43 0 0 1 10.3 1c1.7-3.7-.9-13.7-.3-16 1.2-5.2.1-10.3.8-15.3l.6-3.9c.3-1.1.8-18.5 1.2-25 .2-4 .4-8-.2-12-.5-3.9.2-7.9.3-11.8 0-3.1 0-6.3-.2-9.5-.3-3-.5-14.9-.4-17.6 0-3.5-1.1-6.7-.9-10 .3-3.9-.9-18.8-1.6-22.4a383 383 0 0 0-5.2-20.8c-2-3.3-4.2-6.5-6.6-10.2zm733.7-110.7a14 14 0 0 0-2.5-7.9c-2.3-3.1-4-6.6-6.4-9.8-4.6-6.1-8.8-12.5-13.3-18.8-1.4-2-3.1-3.8-4.7-5.7-.3-.4-1-.7-1-1.1-.4-4-4-4.9-6.7-6.4-3.2-1.7-5.6-4.6-9.4-5.2-.6-.1-10.8-5.1-14.6-6.1-2.8-.7-5.5-1.7-8.3-2.5l-1.8-.6c-.8-.4-19.4.3-21.2.5-1.8.1-3.7.3-5.5.1a61 61 0 0 0-10 .6c-3.4.8-7 1.1-10.5 2-2.8.7-4.8-1-7-2-1.5-.9-1.4-2.1-.4-3.8a6.3 6.3 0 0 1 6-3.1 22 22 0 0 0 8.1-1.4l1.4-.3c8.2.8 16.1-2.3 24.3-1.2 4.1-1.7 8.4.3 12.6-.1h1c1.9.6 20.7 5.2 24.7 7a65 65 0 0 1 23.3 15.9c3.7 4.1 8 7.7 10.3 13.1 1.2 2.7 3.7 4.7 5.4 7.1 2.2 3 4.3 6.3 6.3 9.4.5.7 1 1.5 1 2.2 0 1.1 1.6 3.2 2 3.7 1 1.2 2.2 2.8 2.3 4.3.2 2.7 2 3.9 4.1 5.3l2.2-3.1 7.3-12.5c.3-.5.9-.9 1.4-1.3 1.4-1.2 2-4 4.6-2.6 1.1.5 2.1 5.4 1.5 6.8-.5 1.2-1.3 2.3-2 3.5-.2.4-6 11.2-7.3 14.4l-2.6 5.8c-.5 1-.9 2.2-1.5 3.1-1.9 3.3-5 4.2-8.3 2.4-3.3-2-6.5-4-10.2-5-1-.4-5.5-1.5-6.7-2a9 9 0 0 1-2.6-1.3 225 225 0 0 1-6.3-4.7c-2.5-2-2.8-3.3-1.2-5.9 1.2-1.9 3.4-2.4 5.7-1.3l5.7 3 10.8 5.5zM16 218.8l2 2.7c1.3 1.4 1.6 4.4.3 5.5-.6.5-.9 9.7-2 14.6l-3 10.4c-.1.5-.6 1.1-.5 1.4 1.6 2.5-1 9-1.7 10.6-.7 2-1.2 3.6-.1 6 1 2.6 0 6.2-.1 9.3l-.3 6.6c0 1.3.2 2.7-1.3 3.5-.2.1-.3.9-.1 1.2 2.4 5.2 2.5 7.5.8 13-.3 1 .4 2.1.5 3.2l-.1 3.4c0 1-1.8 1.8-.2 3-.2 3.9 2.5 7.6.8 11.8-.5 1.2-.2 3 .2 4.4 1.6 7 .2 14-.3 21-.3 2.8.3 5.7.4 8.6.2 3.6.4 7.2 0 10.8 0 1.1 0 3.4-.5 5.6a14 14 0 0 1-1 3.5c-.1.5.3 5.6-1 8.6-.7 2.1 1.4 3.6 4 3.5h5c-.5 2-.2 3.7-2.8 4-.4 0-1.3.7-1.2 1 .5 3.7-2.8 3-4.6 3.9-2.3 1.2-4.5.7-6.5-1-.4-.2-1-.4-1.1-.8a211 211 0 0 1-1.6-8.6c0-.3.3-.6.4-1 .2-1.4 0-3 .6-4.2.5-.8-.8-3.3.6-8a83.5 83.5 0 0 0 .8-19c-.1-2.5-1.2-14.6-.9-16.2.4-1.6-.2-3.4 0-5 .3-1.3 0-2.5-.1-3.8-.5-4.5-.8-9 .4-13.4.1-.7 0-1.6-.1-2.3-.2-1.2-1-2.5-.5-3.4 1.2-2.7-.5-5.4 0-8 .1-1-.7-2 .6-3 .3-.1.5-1 .4-1.3-1.7-4.3.3-8.7-.7-13.1-.3-1.4 1-8.4.7-10.5-.2-1.1.3-2.4-.5-3.6-.4-.7-.7-1.7-.5-2.3 1-2.3.3-4.7.6-7 .2-3 1-5.8 1.6-8.7L5 247c.4-3 1-5.8 2.6-8.4.3-.6.1-1.5.2-2.2.8-6.3 4.2-11.3 8.4-17.6zm847.7-68c1.8.4 3.1 1.4 4.8.4 1.8-1.1-1.3-2.7 1-3.8.9 1.7 2.4 3.5 2.7 5.5.3 1.6 1.1 2.5 2 3.6 1.6 2 .7 6.3-1.3 7.8a84.5 84.5 0 0 1-25.3 12c-2.3.7-5.2-1.7-5.7-4.5v-2c0-2.3-.6-4.2-2.6-5.6-3.3-2.4-4-6.4-5.3-10-1.7-4.4-3.3-8.8-7-12.2-1.2-1.1-.7-4.7 1-5.5a83.1 83.1 0 0 0 14.7-8.6c2.8 1 5-1.9 8-1.3 1 .2 2.5-1 3.7-1.8 2.8-2.1 4.4-.6 5.7 1.5a7.3 7.3 0 0 1 1.2 4.1c-.1 1.4.1 2.6.8 3.7.6 1 1 1.7-.3 2.5 0 0 0 .7.2.8 1 .4 2.3.5 3.2 1.1 1.5 1 0 1.6-.5 2.3l1.1.5c2.8 1.8 3 3 .9 5.6l-3 3.9zM407 219.2c1.5 1.3 2.7 2.3 4 3.2-.5 1.9-6.4 5.5-7.2 5.8-1.7.7-7.3.4-9.8-.6-1.4-.5-3.1-.2-4.7-.4-4.4-.4-8.9-.1-13.3 0-4.7 0-9.3-.3-14-.5-3 0-6.1.8-9.3.9-5.3 0-10.7 1.1-16 1.9-4 .6-8 .4-11.8 2-1.5.5-3.3.4-5 .4l-22.3 1-.4-.1c-2.7 2.7-6.3.7-9.3 2a6 6 0 0 1-3 .4c-3.6-.4-7.2.4-10.8.6a18 18 0 0 1-10.5-2c-2-1.1-2.2-2.8-2.2-4.7 0-1.9 1.3-2.7 2.8-3.2.6-.3 1.6-.3 2.2 0 3.1 1 6.2 1 9.4.6l17-2c3.4-.3 6.9-.3 10.3-.5 7.6-.5 15-2.5 22.5-3 12-1 23.7-3.2 35.7-2.9 6.6.2 13.1-1 19.7-.5 3.7.2 7.4.2 11 1a41 41 0 0 0 11 1c2.4 0 3.4 1 4-.4z"/>
  <path d="M26 214.3c2-1.5 2.3-3.3 2.2-5.4-.1-2.8 1.5-4.6 4-5.3.7-.2 1.8 0 2.3-.4 1-.7 1.8-1.8 2-3 .4-1.4.4-3.1.3-4.7 0-1.5-.5-21.7-.7-24 0-.4-.5-25-1.1-27.9 1.1-.2 2.2-.5 3.3-.5 2 0 3.6 1.2 3.3 3.2-.1 1.2 0 2 .2 3.2 1.3 6 2.8 12.1 3.2 18.3.1 3-.5 11-.6 11.4-.7 3.6 1.3 7 1 10.4l-.9 12c0 1 0 2.4.6 3.2 1 1.3 1.4 2.7.2 3.7a10 10 0 0 1-4.3 2c-1 .3-7.8.4-9 2.3-1.4 2.5-3.4 2-6 1.4zm388.6 17.1c.8-.6 6.8-5.7 11.8-7.2.3 0 1.2-.3 1.4-1 .2-.4-.2-1-.9-2-1-1.3-3-2.7-3.3-2-.7-1.2-2.1-.4-2.8-.8-.7-.6-3.3.1-5.6-1.1-3-1.7-6.3-3-9.4-4.5-2.3-1.2-3.4-4-2.3-6.3.4-.9 1.6-1.8 2.5-1.9 1.2-.2 2.6.2 3.8.6 5.7 2.3 11.3 4.8 17 7l4.2 1.7c4.6 1.4 5.7 5.6 7.3 9.3.4.8-.5 2.5-1.3 3.4-2.8 3.2-6.3 4.7-12.2 7.4a67.6 67.6 0 0 1-10.7 4.1c-.6 0-1.7-.6-1.8-1-.1-1.3.1-2.7.5-3.4.7-1.3 1.6-2 1.8-2.3zM643.2 24c.3-1 1-2 1-3.1.2-5.2.2-10.4.1-15.6 0-1-.6-1.8-.8-2.8 0-.7 0-1.7.5-2.1.5-.4 1.5-.5 2.2-.3.8.1 1.5.5 2.2 1a27 27 0 0 0 11 4c2.7.4 5.3.9 7.5 2.6.5.3 1.4.1 3 .2l-4.3-3c-.2-.1-.3-.7-.1-.8.3-.3 1-.7 1.2-.6 2.5 1.8 5.4 2 8.3 2.5 3.1.5 5 3.2 7.2 5.2.6.5-.3 5.1-1.2 5.9-1.7 1.4-3.7 2.6-5.4 4.1a111 111 0 0 0-7.5 7.8c-1.6 1.8-3 2.8-5.6 2-2.1-.8-4.2-.1-6 1.3-1.3 1-2.4-.1-2.1-.8.8-2-.4-2.3-1.7-2.8l-.4-.2c-3.5-.4-6.7-1.3-9-4.5zm13 2.1c1.4-.6 2.6-1 3.7-1.7l5.6-3c3-1.8 6.2-3.1 9.5-4.2a12 12 0 0 0 3.8-2.3c.5-.4.9-1.6.6-2a4.7 4.7 0 0 0-7-2c-1.3 1-2.3 1.3-4 .5-5.5-3-11.6-4.2-17.6-5.9-.6-.1-1.3.2-1.9.3 1.7 2-1.4 2.8-1.1 4.7.5 3.6.3 7.3.8 11 .1 1 1 2.5 2 3 1.7 1 3.7 1.2 5.6 1.6zm-622.9 364-15.5.8-6.6 3.9 2 3.7 20.5-.6z"/>
  <path d="M16 218.8a85.7 85.7 0 0 1 14-14.1l8.3 6.1a30.2 30.2 0 0 0-20.8 21.7l-1.4-13.7zm67.3-16.6c10.7 3.5 14.5 7.7 15.8 11 1 2.4 3.6 9.8 2.7 7.3-.8 1.1-2.5 3-4.5 3-1.5-.2-2.6-1.2-3.6-2.5-4.5-6.6-6.6-12-13.1-11.7-1 0-2 0-2.2-.6-.7-1.2 2.2-4.1 4.9-6.5z"/>
</svg>
