<svg xmlns="http://www.w3.org/2000/svg" viewBox="0 0 717.3 310.3" xml:space="preserve">
  <path d="M165 32c0-6 0-11-8-14L132 3c-14-5-29-2-43-3L64 2c-16-2-33 0-48 8A42 42 0 0 0 0 39l2 16 5 15 6 13 24 53 4 10-1 1-9-8c-5-5-12-4-15 1l-4 13c0 3 3 6 5 8 1 1 5-2 7-4l3-5 3 10c4 18 7 34-4 50-1 2-2 6 0 8 3 3 7 3 10-2l9-19c2-9 3-18 0-27-2-4-1-9-2-14l2-2 7 7c6 7 8 19 22 16l-8 11-13 20-11 23v32l5 22 3 4 13 15 4 1c4 1 9 3 14 3h16c4 0 8-2 11-6l11-15c5-11 8-22 5-34l-7-34c-3-14-5-27-18-36 6-6 15-16 21-30l4-1c-2 8-5 15-5 22 0 8 4 17 4 26 1 7 4 12 8 14 2 2 6 1 9 2l-1-8c-2-7-6-12-6-18-2-10 0-20 0-30l2 4 6 3c1 1 3-2 3-3 2-7 3-15 2-22 1-9-2-11-11-10h-4l1-5 9-23 6-9c6-11 17-19 20-32l1-6v-4 4c2-8 6-15 1-22-1-2-4-3-4-5zm-61 178 2 23 6 13-1 2v27l-5 15c-3 6-7 10-14 10-6 1-12 1-18-1-5-1-9-4-14-7v3-3l-4-16-2-16v-17c0-4 1-9 3-13l20-36c3-6 6-7 14-4 1 1 3 0 5-1l4 14 4 7zm54-156c0 9-7 14-10 22l-10 15c-9 9-10 22-16 33-6 7-10 15-11 25l-4 6-2 2-2 5c-2 2-3 3-3 5l-4 6c-3 0-5 2-8 4s-9 0-11-3c-8-9-15-18-21-28-8-13-13-27-19-40L20 71l-5-13-3-14c-1-3-1-8 2-14l2-4 5-5c5-8 15-11 25-11 16 0 33 2 50 0 16-1 30 1 45 8 16 9 22 12 17 36zm559 6c-4-16-8-31-20-42l-3-3h-1l-1-1-1-1-5-4-7-3-13-4-10-2h-1l-11 2-42 3c-13 0-22 5-32 12-5 3-13 17-13 23l6 32c1 9 4 17 8 25l1 4c1 7 2 14 5 21l20 38c8 15 17 28 32 38 6 5 14 6 21 6 4-1 9-3 11-6l10-19 14-33 15-30 9-23c5-10 10-21 8-33zm-14 15-7 25-2 4-18 40-1 1-5 12-3 11-2-1v2l-1 1-5 6 1 1-2 7-11 11v1-1l-12-4c-5-4-11-6-13-14-1-5-8-9-11-14-11-15-22-32-26-51-2-9-8-17-9-27l-5-31-1-23 4-8 6-3 14-5h2c8-4 16-3 24-3l27-1c13-3 26 0 38 8l1 1 6 7c6 8 11 18 12 30 0 6 1 12-1 18z"/>
  <path d="m683 32-5-4c-1-3-4-4-7-4-10-4-21-3-21-3l-3-1-21-2-14 1-8 3-13 4h-1l-8 7-1 4-3 17v12c3 12 7 23 12 35l5 12v3l4 10 11 22c5 7 11 14 15 23 5 8 14 11 23 7l11-13 1-2 1-2c4-6 7-13 9-19l1-6 9-31 12-28c2-5 2-11 2-16-3-10-2-22-11-29zm0 35-12 34c-8 15-10 24-10 29l-1 12-3 5-9 16-8 7c-1 0-5-2-6-4l-9-15-10-16-11-25c-11-21-17-42-14-66 1-3 1-8 3-9 15-3 42-5 53-4h1c7-1 17 2 29 9l10 24-3 3zm-291 64-36-4c-20 0-40 1-60-4l-8 4c2 3 4 8 6 8l37 5 63 3c10 1 13-2 12-8l-11-2-3-2z"/>
  <path d="M434 134c-14-8-29-13-43-19l-7 4 5 8 17 8 19 5-2 3-27 13c-1 0-3 4-2 6 2 6 7 5 11 4l27-14c10-7 11-14 2-18zM147 36c0-2 0-5-3-9-4-7-12-8-13-8l-15-2-56-2c-4-1-9 0-14 1h-2c-9 2-18 5-21 10-3 7-7 15-7 22 1 9 6 17 9 25l22 41 13 27c4 9 10 16 19 21l1-1 3 1 8-4 3-1c8-1 9-9 11-14 4-5 5-12 8-17l12-26c1-2 3-7 2-8l11-16-3-3 3 3 3-5 6-19V36zM95 152v2-2zm15-47c-5 9-8 18-12 28-2 3-5 7-5 10l-1 4c-4 7-9 6-12 2-7-7-11-15-15-23l-12-24-12-22-11-25c-3-5-4-10-1-15 6-8 14-13 24-14h7l60 2c3 0 8-1 13 4l3 5-2 17c-1 8-4 15-8 23l-16 28zm-16 46v-1 1zm-1-2-1-1 1 1zm39-80 3 4-3-4z"/>
</svg>
