<svg xmlns="http://www.w3.org/2000/svg" viewBox="0 0 969 585" xml:space="preserve">
  <path d="m870 305 4 4 19 29 4 14 1 3c4 3 3 8 5 12 2 3-1 8-4 8h-23l-18-3c-4 0-15 1-14 7l4 30 1 24c0 4-2 28 0 34a832 832 0 0 1-2 43c-1 4 4 10 8 10l14-2 13 1v6l5-1c0 2-1 3-3 3l-20 3c-9 3-16 3-24-2l-4-6c2-2 0-20 0-24v-41l-1-42-5-40-3-3-23 2-6-1c-5-1-10 1-10 6v33l-1 23a3280 3280 0 0 1-1 47v15l1 31c0 7-2 9-9 8l-4 1h-7l-4-1c-4 1-9-1-9 2l-2-1c-5-6-4-7 2-12l6-6 3-1 2 3c0 4 5 6 9 4l1-3-2-39 1-14v-23c-1-6 1-11 2-16v-47c0-9-2-11-11-10h-9c-9 2-19 2-29 2l-6-2c-4-2-4-6-1-9 1-1 5-11 8-14l9-14v-5l-7-12v-2c-3-6-16-13-16-13-4-7-12-9-16-14l-8-9c-2-2-2-4-1-6 2-3 8-6 9-7l19-14 9-8 28-25 37-31 9-6-4-47-5-1c0-3 0-3 4-4-6-1-13-1-17-8-4 1-7 0-9-5l-6-16c-4-8-3-16-1-23 2-11 4-23 10-34 4-8 10-15 18-21l14-12 6-2 10-4c6-2 9-1 13 3l10 10c5 5 8 12 10 19 3 7 6 15 4 22-2 10-3 19-6 28-3 6-5 12-9 17l-5 4-4 6-14 11-2 1c-7 2-8 3-8 10l2 26 1 19 4-2 18-15 29-26 34-30 16-16 32-29 6-8-9-11-8-7c-5-9-13-15-20-22l-3-5-4 1c-13 4-25 7-38 7l-7 1c-3 0-5-1-5-4 0-2 1-5 3-6l10-2 27-5 13-4c3-1 8 2 11 5l7 9 16 17 19 19 6 7c1 2-2 6-5 7l-4 1-1 3-11 11-29 28-18 16-34 30-25 23c-7 7-15 11-21 18l-3 2c-4 1-5 3-4 7l5 32-1 5c7-5 23 22 29 30l2 5 1 2c10 6 14 16 20 25v3zm-134 58 22-2h33l29-1h25l39 2c2 1 5 0 6-1l-1-6-10-18-5-12-16-19c-3-6-8-11-9-18l-1-2c-7-4-11-10-15-16-3-4-13-20-16-22l-4 3c-3 7-7 14-12 20l-7 9-2 2-9 11-15 21c-1 2-3 4-1 7 2 5 1 9-4 11l-5 2c-4 1-7 3-9 7l-5 8c-5 4-7 8-8 14zm65-162-2-1-11 8c-6 7-15 10-20 18l-3 2-19 15c-5 4-8 9-13 12-3 3-8 5-11 9l-15 12-4 3 15 13c7 5 10 13 17 18 3 2 5 6 8 10 2 2 4 2 6-1l13-18 8-11 15-20 2-1c6-8 10-18 18-25-1-6 4-12 0-18v-2c0-5 0-11-5-14l1-9zm27-180c-4 5-5 5-8 4-3-2-5-2-7 0l-15 9c-12 9-18 21-20 35l-4 14c-2 9-2 18 2 27l1 6 14 6h4l6-1c5-2 9-3 13-6 6-4 11-9 16-15 9-9 13-21 14-35V51c-3-11-6-22-16-30zM249 397l-18-16c-2-4-5-7-9-10-6-5-10-12-14-19l-1-1c-9-6-16-16-23-25l-19-22-7-9-14-22-5-7-3-1h-4c-3 4-2 10-8 13l-7 8-19 21-5 5-2 1-11 14c-2 3-1 5 2 7l3 4c1 4-1 6-5 5l-2-2c-3 2-6 4-9 4-5 1-8 4-10 8-4 4-6 9-10 12-2 2-31 27-30 28l-2 1-2 3 3 3 16 1 5 4-2 7-6 1c-4-3-9-2-14-3l-13-3c-4-2-5-5-2-10l5-6c1-2 8-7 7-9 3 0 10-11 13-12l5-6 11-10c3-3 3-6 2-9-1-2 0-4 2-5 4-1 9-3 12-6l8-10 6-7 5-6c2 0 4-3 5-4l15-18 24-25c3-3 8-9 8-12v-4c-2-6-1-12-1-17v-11l2-6-5 1-10 10-15 13-14 10-17 12-6 7-3 2-18 15-3-2v-3c1-4 3-8 8-7l6-3c-3-5-4-5 0-9l25-21 36-29 7-6 4-3 4-3v-9l-1-20-1-17c0-4-4-5-8-5 0-1-6-3-9-2 0-2-16-14-19-22-6-13-8-26-8-40 0-7 2-14 4-21 2-12 10-22 18-31l8-8c3-2 6-4 10-4l14-2c5 0 10 1 15 4 7 3 12 8 17 13l5 8c5 8 10 17 9 27l2 25-2 10-7 17c-2 4-6 7-10 10l-1 2c-3 5-9 6-13 8l-6 4c-3 2-6 5-6 8l1 31-1 6 3 9 6-5c10-6 21-12 30-19l26-20 28-25 15-14c5-6 12-9 17-15l11-9c3-2 2-4 2-7l-5-18-9-28-4-15h-15c-8 0-16 6-24 6h-4c-5 0-9-2-13 0-6 2-8-1-12-4l3-5 2-2c3 4 5 0 8 0l6-1c9 1 17-2 25-4h3l23-1c7-1 11 3 13 10l5 20 8 32c2 7 6 13 4 20l-2 4-22 17-27 24-34 32c-7 6-15 12-24 16l-21 14c-7 5-15 10-23 12l3 29c-1 5 0 8 4 12l8 11c5 9 12 18 19 27l24 29 18 22 8 10 15 18c1 2 4 2 6 4 0 5 7 17 6 20l-2 1zM132 139h4l4-3 18-10c3-2 4-5 6-8 5-9 11-18 10-30V71c1-6-1-12-3-16-5-8-10-17-19-23-3-1-11-5-12-4-3 4-6 4-10 3h-6l-8 6c-6 8-12 16-15 25l-2 8-3 9 2 22c2 11 5 21 12 30 2 4 6 8 12 7 4-1 10 2 10 1z"/>
  <path d="m251 396 6 8-8 5-3 1c-9-1-18-2-27-1l-21 3-17 1v7l2 16 3 34 1 48 2 51c6 2 11 0 17-1l7-1 8-1 4 1-1 9c-1 3-4 3-7 3l-11 1c-6 1-12 0-17 4-5 3-10-1-11-7l-2-35-2-12-2-50-1-16-5-45c-1-3-2-4-5-4l-27-1h-22l-30 2c-3 0-3 2-3 4v4l2 21-2 23c2 1 2 27 2 31v28l1 15v24c0 3 1 8-3 10l-4 2-19-4c-2-1-6-2-7-1l-2-1-1-10c0-3 1-4 4-3 3 2 15 5 19 5v-18l-2-81-1-31v-14c0-3-1-4-4-4l-7-2-5-1c-3-2-3-2-6-9 4-1 7-3 11-2 15 3 29 2 44 1h24l18-1h2c10 3 20 0 30-1l27-1 22-3c9-1 19 0 25 4l4-5zm250-177 1 5c5-3 8-2 12 3l-10 4c-6 2-11 1-16 1l-29 2h-1c-17-2-33 2-49 3l-7 1c-6 2-11 0-16-2-3-1-4-4-3-8 1-3 3-4 6-4 11 1 22 0 33-2h22l27-1 30-2z"/>
  <path d="m507 252-3-2c-3-3-2-6 1-8l17-13c3-2 2-4 0-6-8-7-17-10-26-13-4-1-7-2-9-4-3-2-3-5-1-7 1-3 3-4 6-3l21 7a42 42 0 0 1 24 20c2 5-1 9-3 12-6 8-12 14-22 14l-5 3zM267 361c-5 2-11 6-15-2 4-6 9-10 17-11 9-1 17 1 22 9 2 2 3 5 3 7s-2 3-3 5c-7-2-7-4-5-8l-4-3c-2 2-3 3-2 7l1 21-1 7c0 4-3 6-7 6s-6-2-6-6v-32zM40 279v5c-5 4-8 11-14 15l13 22-1 4 4 1-3 2 3 1v1c-3 1-3 8-7 6l-6-10-17-28c-1-1 0-3 1-4l21-17c3-2 4 1 6 2z"/>
</svg>
