<svg xmlns="http://www.w3.org/2000/svg" viewBox="0 0 518 272.4" xml:space="preserve">
  <path d="m162 0 24 10c9 5 15 13 16 24l1 24c0 3 2 5 5 5l27 6c12 3 24 7 34 16l20 13c3 2 5 5 7 5l15-2h1l20-6 15-9 21-15 7-4 4-8 6-11 9-5c4-1 6 3 9 6l2 2c1-11 7-20 4-31-1-3 4-10 8-10l10 1 4-1c3-5 7-4 11-2 5 2 9 2 12-3l4-1 5 2c5 2 9 2 12-4l5-2 22 4c2 0 3 2 5 3l4-4c4-1 7 1 7 5s-3 3-5 4l-10 3-3 1-15-3c-1 0-4 0-5 2-5 6-6 7-14 4l-7-2-4 1c-2 5-6 3-9 3l-7-1c-5 3-10 3-15 1-2 0-4 0-3 3 3 9 0 17-3 25 0 2-4 3-6 5h3c5 0 8 4 5 9-1 4-2 8-5 11-6 7-7 17-13 23-7 7-12 15-21 20-1 4-6 4-8 8-3 5-10 8-15 12l-5 4-5 4-14 9-1 2c-8 1-8 7-8 13 0 13-4 25-12 34-5 6-9 12-15 15-4 2-6 6-9 9l-11 7-12 5-8 5-22 4c-2 0-3 2-4 3l-3 15c0 3-2 5-5 6-1 1-3-1-5-2h-4c-8 3-17 3-26 1h-5l-38-2h-33c-8 0-9-2-10-9l-1-8c-1-7-3-9-10-10-17-1-32-4-46-12-10-6-20-13-29-21-4-4-7-12-9-18-3-6-5-12-6-19l-2-19c0-10 1-20 4-29 5-9 7-19 16-26l11-11 1-2c13-8 27-17 43-18 6-1 12-3 16-8l5-1 8 1h18c3 0 5-1 6-5 1-10 5-19 7-29l4-11c6-7 14-10 22-13l1-1zm191 94-5 6c-6 1-10 3-15 7l-1 1c-13 4-25 8-38 9l-5-2-22-17c-10-7-21-14-33-17l-29-6c-5-1-10-3-16-3l-42-2-36 2c-1 6-4 8-10 6h-1c-8-2-16 0-25 2s-19 5-27 10l-22 19c-8 10-13 21-14 34l1 23 2 11 5 13c3 5 4 9 8 12 4 5 10 8 15 11 12 10 28 13 42 16l20 3c4 1 6 3 7 7 0 3-2 7 1 10v2c0 5 1 6 6 6l11-1 19 1 36 3h6l29-2 1-4-1-7c-1-3-3-6-1-8s5-3 7-3l26-3c17-7 32-17 45-30 15-13 16-30 16-47 0-5 2-8 6-9l6-2 16-11c5-4 11-5 14-11l3-1 11-8 13-14c9-8 15-18 21-28 4-5 3-8-2-11l-8-5c-3 7-8 13-12 18-7 8-14 14-23 19l-5 1zM140 34l1 10-2 11c0 2 1 3 4 3l26 1 17 1c3 1 7 0 6-5V39c-1-7-4-14-10-18-4-3-10-5-16-7-4-1-8-1-10 3l-2 1c-3-2-5 1-6 2l-4 11c-1 3-2 4-4 3z"/>
</svg>
