<svg xmlns="http://www.w3.org/2000/svg" viewBox="0 0 407.5 262.8">
  <path d="m178.3 160.3 1 19.1c0 2.2 1.3 3.3 3.6 3.1 6.5-.4 13-.7 19.5-1.3 6.9-.6 13.8-1.7 20.7-2 7.8-.3 15.6 0 23.4 0H257l36.6-1 30.2.1c5.1 0 10.3.4 15.4.7 4.4.3 8.7 1 13.1 1 4.1 0 8.2-.6 12.4-.7 2 0 4 .3 5.9.8 2.5.7 4.6 1.8 6.2 4.4 1.5 2.3 4.2 3.9 6.4 5.6 1.7 1.3 3.5 2.2 5.3 3.3l1.4 1c4.2 2.6 8.9 4.6 12.4 7.9 2.7 2.4 5.4 5.6 5.2 10v6.4c0 1-.6 2-.8 3.1-.2.8-.4 1.6-.4 2.3.2 1.4 1.2 3 .7 4a11 11 0 0 1-4.1 4.4c-2.1 1-3.6 2.2-5 4.1-1 1.8-3.3 2.9-5.1 4a319 319 0 0 1-12.4 7.7c-1 .5-2 .7-3.1.8a33 33 0 0 0-10.6 3c-2.4 1.3-5.7.6-8.6.8l-5 .8-6 1c-7.1 1-14.2 2.2-21.3 3-3.6.5-7.3 0-11 .1-.6 0-1.4 0-1.8.3-2 1.8-4.4 1.8-6.8 1.7h-1.3c-6.3.2-12.7.4-19 .9-6.5.4-13 1.3-19.5 1.7-5.2.2-10.4 0-15.6-.1h-2.5c-6.6.1-13.3.5-20 .5-3.8 0-7.6-.5-11.5-.6-4.3 0-8.6.3-13 .2-1.7 0-3.4-1-5.2-1.2-4.6-.3-9.1-.3-13.6-.6-8.6-.5-17.2-1.3-25.8-1.9-1.8 0-3.7.4-5.5 0-3.4-.6-6.8-1.7-10.3-2.6-7.1-1.9-14.2-4-21.3-5.6-4.3-1-8.7-1.2-13-1.8-1.5-.3-3.1-.4-4.4-1-2.3-1-4.6-1.1-7.2-1.2-3.4 0-6.8-1.5-10.2-2.4l-4.2-1.5c-5.1-1.4-10.3-2.8-15.5-4-2-.5-4.2 0-6.2-.4a44 44 0 0 1-14-4.6c-3.7-2.2-8-3.3-12.1-4.9-.8-.2-1.7-.2-2.4-.6-6.3-3.3-13.4-4.8-19-9.4-3.8-3-8.3-5.6-10.5-10.3-2.4-4.9-4.6-10-2.6-15.5.7-1.7 2.9-3 4.5-4.3 1.6-1.2 3.3-2.2 5-3.3.5-.4 1-.9 1.7-.9l9.9-.3h16.7l3.7-.3H75c8.3 0 16.6-.4 24.9-.4 7.8 0 15.5.3 23.3.4 4.4 0 8.8-.4 13.2-.4l7.8.2c5 0 10-.1 14.9-.5 2.6-.2 3.2-1.6 3-4.2a2274.7 2274.7 0 0 1-3.2-60.8c-.2-3.8 0-7.5-.1-11.3a741.3 741.3 0 0 0-4-45.8c-1.1-8.6-.9-17.2-1-25.8-.1-3.7-1-7.4-1-11 .1-5.9.3-11.7 1.2-17.4.4-2.3 2.6-4.6 4.5-6.3 1.7-1.5 6.9.8 8 3.2 1.5 2.8 2.6 5.8 4.2 8.4 1.3 2.2 3.3 4 5 6 3.4 4.2 6.8 8.6 10.4 12.8 4.3 5 8.8 9.7 13.1 14.6 1.8 2.1 3.3 4.6 4.9 6.9l1.3 1.8 8.3 8.5a4 4 0 0 1 1 1.8c1.6 5.3 5.4 9.1 9.3 12.8l3 3.3 6 5.4 1.9 2.1c1 1.3 2 2.6 3.2 3.8 1 1.1 2.2 2 3.2 3s1.5 2.3 2.5 3.2c2 1.8 5 2.6 4.7 6.3 0 .5 2.2 1.3 3.5 1.8 1.1.5 2.3.8 3.5 1.2 2.6.8 5 2 7.7 2.4 5 .8 7.4 4.2 6 9.2-.2 1-.2 1.9-.5 2.7-.4.8-1 2-1.6 2-2.7.2-5.5 0-8.2-.2-1.1 0-2.2-.8-3.2-.8l-22.4 1c-1.5.2-3 .7-4.6.9a15 15 0 0 1-3.7.3c-5.7-.1-11.3-.4-17 1-4.2 1.1-8.7 1-12.9 1.9a65 65 0 0 1-15 1.5c-2.5 0-3.5 1.2-3.5 5 0 6.2.4 12.3.9 18.4.2 2.5.9 5 1.3 7.5h-.3Zm-115.8 40v1H30.2c-2.6 0-5.1.2-7.7.5-.6.1-1.3.7-1.7 1.2-.2.3.1 1.2.5 1.5 1.8 1.3 3.5 2.9 5.6 3.6 3.6 1.2 6.7 4 10.8 3.8.4 0 .9.3 1.4.5l14 6.5c1.3.6 2.5 2 4 2.2 4.4 1 9 1.9 13.5 2.2 10 .8 19.5 4.3 29.3 6.4 6.8 1.5 13.6 2 20.4 3 .8.1 1.7.1 2.2.6 2.2 2 4.8 1.8 7.5 2 2 0 4.2 0 5.8 1A40.7 40.7 0 0 0 152 241a629 629 0 0 1 27.3 2.5c9.7 1.2 19.6 1.3 29.5 1.7 4.6.2 9.3 0 14 0h29c3.5 0 7 .6 10.5.4 6-.2 11.8-1.5 17.8-1h1l21.6-1.9c5.6-.4 11.3-.6 16.9-1.2 4.2-.4 8.3-1.3 12.5-2l7.2-.6c3.7-.5 7.3-1.2 11-1.6 5.7-.6 11.5-.5 17-1.8 5.1-1.1 10-3.5 14.7-5.7 3.4-1.5 6.6-3.6 9.8-5.5.7-.4 1.7-1.2 1.6-1.7-.6-3.5 0-7.4-3-10.2-2.3-2-4.5-4-6.9-5.8-.6-.6-1.6-.8-2.3-1.3-3-2-6.4-3.5-8.6-6.1a10 10 0 0 0-8.6-3.9c-4.2.2-8.3.8-12.4.8-4.8 0-9.6-.7-14.4-.8-6.7-.2-13.4 0-20.1 0l-2.5-.1c-6.3-.2-12.5-.4-18.7-.4-3.2 0-6.3.3-9.4.5l-7.5.3-5.4-.3-21.4.5c-14.5.4-29 .8-43.4 1.5-11.3.6-22.6 1.8-34 2.4-11.2.6-22.5.8-33.8 1h-21.6l-10 .3c-3-.1-6-.7-9-.7H62.7Zm120.7-87.4v.4l9.6-1.4 33.6-3.6c1-.1 2.6-.7 2.7-1.3.1-1-.5-2.2-1.2-3-1.6-2-3.5-3.8-5.2-5.7l-3.2-3.7-5.2-5.5c-2.1-2.3-3.8-5-6.2-7a26.4 26.4 0 0 1-7.2-9.4c-.6-1.4-1.2-2.8-2.2-4l-10.9-12c-2.2-2.6-4.1-5.5-6.3-8.2-3-3.8-6-7.6-9.2-11.3-.6-.8-1.5-1.3-2.4-2-.5 1.1-1.5 2.2-1.5 3.2 0 4.3.2 8.6.6 12.9.6 6 1.6 11.8 2.2 17.8 1.4 13.7 2.8 27.5 4 41.3.2 1.7.9 2.5 2.5 2.5h5.5Z"/>
</svg>
