<svg xmlns="http://www.w3.org/2000/svg" viewBox="0 0 311.9 310.1">
  <path d="M19.5 252.7c-1.1 4.3-2.1 8.5-3.3 12.7-1.2 4.2 1.2 7.2 3.3 10.2a15.6 15.6 0 0 0 5.7 5.3c1 .5 2.4.4 3.3 1 4 2.3 8.2 3 12.7 2.1 2.9-.6 5.8-.6 8.7-1a7 7 0 0 0 2.5-.9c3-1.7 6-3.6 9-5.2 1.4-.8 3.2-1 4.5-1.8 2.7-2 5.2-4.1 7.8-6.2 1-.9 2.3-1.6 3.3-2.6.9-.8 1.6-1.8 2.4-2.6 1-1.2 2.1-2.5 3.4-3.4 3-2 6.1-4 9.3-5.8 2.7-1.6 5.5-1 7.8 1a8 8 0 0 1 1.7 8.7 11 11 0 0 1-3.3 3.5c-2.5 1.9-5.3 3.5-7.7 5.4-1.4 1-2.3 2.6-3.4 3.9-.9 1-1.6 2.4-2.7 3.1a5.3 5.3 0 0 0-2.7 4.5l-.4 6.7c-.1 1.7.5 2.9 2.4 3.1l.2.1c4.7 4 9.3.7 14-.1 2.7-.5 5.5-.4 8.3-.9a25 25 0 0 0 8.7-4l7.3-5.4 10.9-8.1c.2-.2.5-.3.5-.5.7-4 5-4.8 7-7.7 2.6-3.6 6-6.4 8-10.7 1.9-4.2 5.6-7.5 8.5-11.3 1-1.3 1.7-2.7 2.5-4.1.6-1 1.3-1.7 1.8-2.7l2.3-5c.1-.4 0-.9.2-1.2 1.7-3 3.3-6.1 5.2-9 3-4.2 6.3-8.3 9.4-12.6.4-.5.7-1.1.9-1.7l3.3-9.9a7 7 0 0 1 1.5-2.2c3.4-3.8 6.7-7.4 8.7-12.3 1-2.4 2.8-4.4 4.2-6.6l5.9-9a4 4 0 0 1 1.9-1.4c1-.3 2.2-.4 3.4-.5a69 69 0 0 1 21.2 3.8c5.4 1.6 11 2.8 16.3 4.5 3.9 1.1 7.5 3 11.4 4.1 4.7 1.3 8.4 4.4 13.2 5.4 3.8.7 7.3 3.3 10.8 5.3 1 .6 1.4 2 1.9 3.1.6 1.4 1.3 2.2 3 1.5 3.8-1.6 7.7 1.5 7.3 5.6a53 53 0 0 1-1 6.2c-.6 2.3-4.6 3.8-6.7 2.3-2.4-1.7-4.9-3-8-3-.7 0-1.7-.8-2-1.5-1-2.6-3-3.3-5.3-4-2.8-.7-5.4-2-8.1-3a194 194 0 0 0-5.7-1.9l-5-1.6c-1.2-.3-2.3-1-3.5-1-2.4-.2-4.6-.7-6.3-2.5-.5-.6-1.5-.5-2.3-.8l-5-1.7c-2.1-.6-4.2-1.2-6.4-1.6-4-.8-7.8-1.6-11.8-2-3.1-.4-5.8.6-7.8 3.4-1.1 1.5-2.7 2.8-4.1 4.1-.6.6-1.6 1.2-1.6 1.8.1 2.4-1.5 3.3-3 4.6a6.8 6.8 0 0 0-2 4.3c-.4 3.2-1.7 5.6-3.7 8a17.6 17.6 0 0 0-3 5c-1.2 3.2-2.3 6.2-4.9 8.8-1.8 1.8-2.5 4.8-4 7.1a503 503 0 0 1-8.7 14.4c-2.3 3.5-4.8 6.9-7 10.4-.6.8-.9 1.8-1.3 2.7-.1.4 0 1-.3 1.1-3.6 1.4-3 6.2-6.2 7.8-.5.3-1 .9-1.3 1.5-2 4.4-5.3 7.7-8.6 11-2.5 2.4-4.7 5.2-7.2 7.7-1.3 1.3-3 2-4.5 3.3-2.5 2.1-4.8 4.5-7.3 6.6-.7.6-1.9.7-2.7 1.1-1.2.7-2.3 1.6-3.5 2.2a27 27 0 0 1-5.3 2.2c-3.5 1-7.5.7-10.3 2.5-2.8 1.8-5.7 2-8.6 2.7-6.3 1.8-12.7.9-18.8-.5a28 28 0 0 1-10.4-5.8c-1.8-1.5-2.7-4.3-3.9-6.6-1-2-2.3-2.3-4.5-1.5-2.4 1-5.1 1.2-7.7 1.8-2.9.7-5.7 1.5-8.6 2-5.7 1-11.2.4-16.6-1.8L18 292c-2.3-1-4.4-2.3-6.6-3.4l-.5-.5c-1.9-4-5.4-6.8-7.8-10.4a16.8 16.8 0 0 1-2.9-11.5c.9-5.5 1.3-11 2.5-16.5 1-5 2.8-10 4.3-15 1.3-4.6 2.4-9.3 3.9-13.8.8-2.2 2.3-4.2 3.5-6.3l3-5.7 5.7-10.2.7-1 8-17.3c.5-1.2 1.3-2.3 2.1-3.3 2.6-3.6 4.8-7.6 7.9-10.7 4.4-4.4 7.3-10 10.9-15 1-1.4 1.5-3.4 2.4-5 .8-1.5 2-2.8 3-4 1.1-1.6 2.5-3 3.5-4.7 2.5-4.2 4.6-8.7 7.4-12.6a159 159 0 0 1 20.8-22.8c3.6-3.2 7.4-6 11-9 3-2.7 5.9-5.6 8.8-8.5.3-.2.5-.8.9-.9 3.2-1 5.2-3.6 7.4-5.8.9-1 1.7-2 2.6-2.8l1.9-1.6 2-1.3 8.4-7.2 13.4-11.1c2.3-2 2.4-4.9 2.3-7.6 0-2-.4-4 1.4-5.6.3-.3.5-1.1.3-1.6-1.4-4.4.6-8.3 2-12 1.4-4 3.7-7.6 5.8-11.2 1.2-2 3.1-3.4 4.1-5.8.8-1.9 3.3-3 5-4.6 1.5-1.4 2.7-3 4.3-4.2a8 8 0 0 1 4.3-1.6c2.8 0 6-.1 8.5 1 2.1 1.1 3.7 3.7 5 6 2.5 4.4 4.4 9.2 8 13 .5.8.9 2 .9 2.9 0 3.3 2 5.8 3.4 8.6.8 1.6 1 3.5 1.2 5.3.3 3.2.4 6.4.5 9.6v5.2c0 2.3-.3 4.4-3.4 4.3-.4 0-1.3.8-1.2 1 .3.7.7 1.8 1.3 2 2 .5 2.3 1.9 3.2 3.5 1.3 2.8 3.4 5.3 6.6 6.6 2.3.9 4.2 2.6 6.3 3.8 4.3 2.4 8.8 4.3 12.8 7.1 2.2 1.6 5 2.1 6.9 3.6 3 2.4 6.6 2.9 9.7 4.6l11 5.8 8 5 1.6.8c7 1.8 12.3 6.8 18.4 10.3 2.2 1.4 4.2 3 6.3 4.5 1.4 1 3.5 1.4 5.4 1.6a6 6 0 0 1 4.4 2.3 6 6 0 0 0 3 2 14 14 0 0 1 6.8 3.3c1.3 1.2 2 2.2 1.5 4-.1.4 0 .8-.2 1.2-.6 2.1 0 5-3.1 5.7-5.5 1.1-6.6.6-9.2-3.1a4.8 4.8 0 0 0-2.5-1.8c-2.7-.7-5.4-1-8-1.6-.8-.2-1.8-.2-2.1-.7-1.7-2.3-4.1-2.6-6.5-3.2-.3 0-.6-.1-.7-.3-3.6-4.7-10.4-4-14-8.5-4.2-.7-7.5-3.7-11.5-4.6a36.2 36.2 0 0 1-13.8-7.4c-1.5-1.1-3.2-2-4.8-3l-9.4-5.2c-6.2-3.7-12.2-8-18.7-11.1-4.7-2.3-9-5-13.2-8.2-.8-.6-1.7-1-2.6-1.5-.5-.3-1.2-.6-1.4-1-1.2-3.7-3.5-7.2-1.7-11.5a18 18 0 0 0 1.3-6c.2-7 .7-14.2-1.6-21-.5-1.5-.5-3.2-.8-4.7-.1-.7-.3-1.5-.6-2.1-1.3-2.6-2.4-5.3-4-7.7a19 19 0 0 0-4.5-4.2c-.4-.3-1.7.2-2.3.7-1.2 1-2.1 2.3-3.3 3.3a23 23 0 0 0-5.8 10l-1.7 4.2c-2 5-4.1 9.9-2 15.4.4 1.3.3 2.9.8 4.1a15 15 0 0 0 2.7 4.8c3 3 3.7 8 1.4 11.4-1.3 2-5.6 2.6-7.4 1a26.7 26.7 0 0 1-3.5-3.9c-1.5-2-3.1-2-4.3.2a9 9 0 0 1-2 2.6l-16 13.2c-2.9 2.4-5.5 5.1-8.3 7.6-3.7 3.3-7.6 6.4-11.4 9.8-4 3.6-7.8 7.4-11.7 11.1l-13 12.3a163.3 163.3 0 0 0-11 14.4c-3.4 5.7-8.4 10.4-10.6 17a6 6 0 0 1-.9 1.7l-9 12.5c-1.2 1.7-2.2 3.6-3.4 5.5l-11.7 19.6c-1.4 2.3-3 4.5-4.3 6.9-1.8 3.5-3.3 7.1-5 10.7l-6.2 12.4c-.6 1.3-1.3 2.5-1.7 3.9-1.1 3.7-2 7.6-3.3 11.3-.9 2.4-2.4 4.6-3.3 7-.7 1.8-1 3.8-1.4 5.7l1 .2Z"/>
  <path d="M157.3 119.8c0 3.5-1.7 5.3-3.6 6.9-2.4 2-2.4 2.5.2 4.1 2 1.3 3.2 4.7 2.3 7-1 2.9-3.2 4-6.3 3.7-3.3-.4-6.7-.7-10-.8-2.3 0-3.1 1.7-3.6 3.6-.5 2.3-1 4.7-2 6.9-.3.8-1.7 1.7-2.5 1.7-2-.3-4.4-.3-5-2.9l-2.3-9.7c0-.4 0-1 .2-1.4 1.3-3.2 3-6.3 4-9.6.7-1.6.6-3.5.7-5.3 0-3.5-.2-7.1.2-10.6.3-2.4 1.5-2.5 3.5-1.2 2.3 1.5 4.5 3.1 7 4 1.2.5 3.2 0 4.4-.7a9 9 0 0 1 12 2.4c.6.7.7 1.7.8 1.9Z"/>
</svg>
