<svg xmlns="http://www.w3.org/2000/svg" viewBox="0 0 486 154">
  <path d="m289 93 2 27c0 5 2 10 4 14l2 2 1 1 5 4c5 3 9 3 15 2l18-8c4-2 9-4 13-8l11-7c5-2 11-3 16-6 4-2 9-1 13-1h2c4 3 9 5 12 9l7 5 6 3 2 1 15 6 4 1c10 3 19 3 29 3h16c2 0 4 1 4 3s-1 4-3 4c-9 2-19 5-29 4a119 119 0 0 1-29-5l-10-6-2-1c-7-2-14-6-19-12l-7-4c-4-2-8-1-12 2l-9 3-3 1-15 11-10 6-11 4-10 3h-1c-7 0-13-1-19-4-5-2-8-6-10-10-3-3-4-7-5-11-2-7-3-14-3-22l-1-29-2-12c-1-4-1-9-3-13l-4-8-4-8-10-10-6-6-6-3c-5-3-11-5-17-6-5 0-11-2-16-1-8 0-15 2-23 3l-5 2c-6 2-11 5-16 10l-18 22c-5 6-7 13-9 20l-4 12-3 11-4 15-1 7c-2 6-3 13-6 19-2 6-6 11-11 15-1 2-4 3-6 4l-2 1c-7 3-14 2-22 1l-6-1-14-1-10 1-4-2-10-2a157 157 0 0 1-34-10c-2-1-2-3-2-5 1-3 2-5 5-4l8 1 19 5 19 3 24 3 12 1c5 1 11 2 15-1l7-8c4-5 6-11 7-18l4-15 6-25 3-9 1-1 6-18c3-7 8-13 14-18l6-8 7-6c5-4 10-8 17-10l8-3h1c12-2 23-3 35-1l13 3 10 4 17 12 7 9a91 91 0 0 1 9 14 145 145 0 0 1 9 50Z"/>
</svg>
