<svg xmlns="http://www.w3.org/2000/svg" viewBox="0 0 365 207">
  <path d="M22 0h19l40 1 35 3 11 1 20 1h13l24 1c8-1 16 1 23 2h3l29 1 22 1c11 0 22 1 32 3h6l14 3 10 1 14 1h11l10 2 4 1c2 0 3 2 2 3l-2 12-2 5a643 643 0 0 0-6 41l-2 13-1 23-2 17 3 26c1 6 2 12 1 19l-4 17-4 8-2 1-26-1-13-1-33 2h-4c-12-2-24 0-35 0l-5-1-11 1-21-1-22-1h-34l-24-1-13-1h-6l-10-3-15-2h-1l-54-2H8c-2 0-3-2-4-4-4-8-2-16-2-24l2-22v-43c0-9 1-19-2-28v-1c0-13-3-26-2-38l3-15-1-8c0-3 1-7 3-8 3-2 6-4 10-4l7-1Zm259 191v1l12-1 13-1c3-1 6 0 10 1l18 1 3-1 2-10-1-20-1-17-1-9 1-12 3-30 2-16 1-3 1-3 2-12 2-16c1-6 1-10-6-10h-12l-13-2-14-1-8-2-23-2-20-1-36-3-34-2c-6 0-12-2-18 0h-1l-14-1-23-1-23-2-29-1h-8l-27-1-21 1c-2 0-3 1-3 3v6c-2 5-2 10-2 15l1 21 1 9 2 17v56c1 11-1 21-2 31v7c0 2 1 3 4 3h28l29 1c5 1 11 1 16 3l21 3h25l12 1h41l24 1h28l15-1h23Z"/>
</svg>
