<svg xmlns="http://www.w3.org/2000/svg" viewBox="0 0 246.9 321.1">
  <path d="M58.1 293.3c7.7 6.6 14.7 12 24.7 11.4a112 112 0 0 0 49.4-15.4 87.2 87.2 0 0 0 27.4-27c10.8-16 22.1-31.4 32.7-47.4a314.4 314.4 0 0 0 33.1-64.3 118 118 0 0 0 6.7-28.9c1.9-15-1.3-29.4-3.4-44a54.7 54.7 0 0 0-20.4-33.6c-17-14.4-37-21.4-58.6-25.2-22.7-4.1-45-.8-67.3 2.6A114 114 0 0 0 34.7 39 45.2 45.2 0 0 0 14 74.5c-.7 7.6-.7 15.3-.9 23 0 3.8-1.1 7.4-5.2 7.7-3.7.3-5.9-2-6.5-6.5a92.5 92.5 0 0 1 6.5-53.9A58.7 58.7 0 0 1 30 22.6a71.4 71.4 0 0 1 18-9.4 247.5 247.5 0 0 1 77.5-13c14.8.4 29.6 3.4 44.2 6.1 15.6 2.9 29 11 41.7 20.1a66 66 0 0 1 24 26.4c4 9.5 6.5 19.8 8.6 30 3.8 18.2 4 36.8 1 55.2a228.4 228.4 0 0 1-32.9 74.4c-5.4 8-11.3 15.6-16.5 23.6-6.5 10.2-12.6 20.6-18.8 30.9a115 115 0 0 1-22.4 26.4 87 87 0 0 1-25.2 16.3c-18 7.4-36.5 14.2-56.4 10.6a49 49 0 0 1-30.2-21.4c-2.7-3.8-1.6-10.5-1.5-16 0-1.4 2.5-3.7 4.3-4.2a47 47 0 0 1 14.7-2c2.5.2 5.6 3.5 6.7 6 1.4 3.5.4 7.3-3.9 9l-4.6 1.8Z"/>
</svg>
