<svg xmlns="http://www.w3.org/2000/svg" viewBox="0 0 46.7 303.7">
  <path d="M20 14.2c0 24.4.6 48.8-.2 73.1-.5 15.5-3.4 30.8-4.4 46.3-.9 14-.7 28.2-.8 42.3-.1 19.2-.2 38.4 0 57.6.2 13.9 1 27.7 1.4 41.6l.7 22.7c.2 4.8-3.6 5.7-6.8 6-3.5.2-6-2-6.4-5.8a848.2 848.2 0 0 1-3.1-67.7c-.2-11.3-.2-22.7-.3-34 0-10-.3-20 0-29.9.4-14.3.9-28.7 2-43 1.1-15.1 3.3-30.2 4.5-45.3.8-8.7.6-17.5.7-26.3l.5-35c0-3.7-.3-7.5-.1-11.3.2-4 3.2-5.6 6.9-4.2 6.2 2.4 7.1 7.3 5.4 13Zm23.8-4.4v30c-.1 9.9 0 19.7-.6 29.6-.6 9.5-2.5 19-3.1 28.4a505 505 0 0 0-1 34.8c0 17.5.3 35 1 52.5.6 14 2 28 2.9 42l3.4 57.5.3 8.4c0 3.4-3.3 6.4-6.7 6.3-3.8 0-7.3-3.5-7.4-6.7-.1-9.5 0-19-.8-28.5-1-13.2-2.7-26.2-3.7-39.4-1.2-17.3-2.5-34.6-3-51.9-.4-18.8-.4-37.7.3-56.6.5-14.8 2.7-29.5 3.3-44.3.7-17.2.3-34.4.5-51.5 0-4.6.6-9.2 1-13.8.2-3 .7-6.6 4.4-6.6 3.8 0 7.7 1.3 8 6.3 0 1.2.4 2.3.6 3.4h.6Z"/>
</svg>
