<svg xmlns="http://www.w3.org/2000/svg" viewBox="0 0 551.2 270.7" xml:space="preserve">
  <path d="m109 139.1-13.4 19.5c-4 5.6-7.9 11.3-12 16.9-11.4 15.3-22.8 30.7-34.4 45.8-12 15.6-24.2 31-36.6 46.2-4.2 5.1-10.5 4-12.3-2.2-.9-2.8.4-7.1 2.2-9.6 13.2-17.3 26.9-34.3 40.3-51.6 5.1-6.6 9.8-13.6 14.9-20.3 7.3-9.6 15-19 22.1-28.8 6-8 11.3-16.6 16.6-25.2.9-1.3.9-4.2 0-5.3a927 927 0 0 0-22.3-26.7c-5.4-6.3-11.2-12.2-16.5-18.6-7-8.4-13.9-16.9-20.3-25.8-5.2-7.2-9.6-15-14.2-22.6-3.3-5.5-6.3-11.3-9.2-17A35 35 0 0 1 11 6.4c-1-4 2.7-7.7 6.2-6 3.3 1.7 6.6 4.3 8.5 7.3 6 9.7 10.4 20.5 17 29.6C54 52.3 66.3 66.6 78.3 81c8.5 10.2 17.4 20.1 26.1 30.2.8.9 1.3 2 2.2 3.5 5.6-8 10.5-14.8 15.2-21.7 7.4-11 14.8-22 21.9-33.2 6.1-9.7 11.6-20 17.7-29.7a368 368 0 0 1 17-24.5c1-1.5 5.7-2.4 6.4-1.6a17 17 0 0 1 4.5 9.2c.2 2.7-2.1 5.7-3.7 8.3-5.3 8.6-10.8 17-16.1 25.4C163.6 56 158 65.4 152 74.4a3612.8 3612.8 0 0 1-31 45.3c-4 5.8-3.9 6.8.9 11.9l37 40c18.4 20 36.8 39.8 55 59.8a319 319 0 0 1 16 19.5c3.7 4.9 3.4 9.7-.3 12.4-3.4 2.4-6.6 1.8-9.3-1.2-16-18.4-31.8-37.1-48.2-55.3-14.5-16.1-29.8-31.6-44.8-47.5L109 139.1zm334.1-19.7c6.5-10 12.7-19.2 18.5-28.6 13.5-21.7 26.7-43.4 40.1-65.2 1.2-2 2.9-3.7 3.9-5.7 1.8-3.8 5-4.9 8.6-4.3 2.7.4 5.7 7 5 10-.4 1.7-1 3.5-2 5L480 91c-8.4 13.5-17 27-25.7 40.6 4.1 4.8 8.7 9.8 13 15 11.7 14.1 23.6 28.1 34.8 42.7 10 12.8 19 26.3 28.6 39.4 5.7 7.7 11.8 15 17.8 22.6 3.9 4.8 3.8 7.6-.7 11.4-3 2.6-6.7 1.7-10.3-1.7-16.7-15.6-28.2-35-41.4-53.4a807.2 807.2 0 0 0-23.5-30.9c-7.4-9.4-15.2-18.5-22.9-27.8-3.6-4.4-4.8-4.6-8.1.3a1258 1258 0 0 0-19.8 29.8c-9.8 15.2-19.7 30.3-29.3 45.7-7.2 11.5-14 23.2-21 35-2.2 3.7-5.2 5.6-9.4 4-3.7-1.4-5.9-6.7-4.1-10.6 3.7-8.2 7.4-16.4 12.1-24 9.8-15.7 20.4-31 30.6-46.6 7.6-11.7 15.1-23.6 22.9-35.3 2.5-3.8 5.5-7.5 8.4-11 2-2.3 2.3-4-.1-6.3-14-13.8-28-27.4-41.6-41.5A207.5 207.5 0 0 1 360 49.8c-4.1-7-8.9-13.6-12.9-20.7-3.1-5.6-5.6-11.6-8.3-17.5-.5-1.3-.8-3.2-.3-4.4.8-2 2-4.7 3.8-5.5 1.5-.7 5 .4 6 1.8 4 6.2 7.4 12.9 11.3 19.2A479.4 479.4 0 0 0 392.8 70c4.6 5.7 10 10.5 15.3 15.6l31.6 30.8 3.4 3z"/>
</svg>
