<svg xmlns="http://www.w3.org/2000/svg" viewBox="0 0 202.2 106.2">
  <path d="M188.5 85.7c2 1.6 4 3.4 6.4 4.8.8.5 2.4.5 3.3 0 1.2-.4 2.1-1.7 3.2-.3 1.3 1.6.8 3.4-.8 4.6-.6.4-1.9 0-2.9-.3-3.2 2.7-7.4 1.9-11.1 2-3.5.3-7 .5-9.4 2.8-5.5 5.5-12.8 4-19.3 5.1-7.2 1.2-14.6.5-22 .7-8 .3-16.2 1-24.3 1-6.3 0-12.6-.7-18.8-1.2-3-.3-6.1-.9-9.2-1-5.9-.2-11.8-.1-17.6-.3-6.2-.2-12.3-.6-18.4-.6-2.4 0-4.8.8-7.2 1.1-1.4.2-3.1.5-4.3-.1-5.2-2.6-10.8-2.4-16.3-2.8-4.9-.2-7.7-2.6-9-7.2-1.5-5-1.5-10-1.6-15-.2-7-.6-14.1-1-21.1-.2-2.8-1-5.3-4.5-6A4.5 4.5 0 0 1 0 47c.1-2.4 2.2-3.1 4.2-3.5 1.7-.4 2.9-1.2 3-3.1l.6-21.7c0-3.9-.2-4-4-4.8-2.5-.6-2.5-2.7-2.4-4.6 0-1.7.4-3.3 2.7-3.3C7.5 6 8 5.3 8.5 2c.2-.8 1-2 1.8-2 1-.2 3 0 3.4.7C16.5 5 20.7 5.2 25 5l14.7-.8c2.4-.2 5-.6 7.4-.5 3.6 0 7.2.5 10.9.6 5 0 10 .4 14.9-.2 3-.4 5.4-1.6 8.4.2 1.6.9 4 .2 6.2.3C98.8 5 110 5.8 121.3 6c8.4.1 16.8-.5 25.2-.6 4.7 0 9.5.2 14.1.8 4.8.7 9.6 1.6 13.9 4.2.9.5 1.8 1.4 2 2.3 1.8 5.8 3.7 11.6 2.3 17.8-.2.9.5 2 1 3 .8 1.2 1.9 2.3 2.4 3.7.5 1.1.6 2.6.6 3.9.2 3.4.9 6.6 2.5 9.7 1.4 2.8 2.3 6.2 2.4 9.3 0 4 1.8 7.2 3.6 10.6.5 1 .7 2.8.1 3.5-1.7 2.2-1.4 4.8-2 7.3l-.9 4.2ZM110 23.3c.3.6.8 2.3 1.7 2.6 1.8.6 3.9.5 5.9.6l11.7.6c2.3.2 3.8-.7 4-2.9l.5-4.6c.3-3-.6-3.6-3.5-3.3-3.3.3-6.7.2-10 .1-2.5 0-5-.3-7.5-.2-.6 0-1.7.8-1.9 1.4-.5 1.6-.6 3.2-1 5.7ZM62.5 46.2V46c1.5 0 3 0 4.4-.2 1.6-.2 3-.7 3.2-2.6l.5-5.5c0-1.7-.6-2.6-2.5-2.5l-4.5-.1c-3.6-.2-7.2-.5-10.9-.4-.8 0-2.1 1-2.2 1.6-.4 2.3-.4 4.7-.4 7.1 0 1.5 1 2 2.5 2.1l9.8.7Zm61.8 21.7c7.9.5 6.5 0 6.6-6.2v-1.5c0-1.5-.9-2.2-2.4-2.3l-12.1-.5c-5.5-.3-6.6.6-7 6.1v1.2c-.6 2.3.8 3.1 2.7 3.2h12.2ZM91.4 15.1h-3.2C81 15 81 14 81.5 22c.2 3 1.2 4 4.2 4 4 0 8.1 0 12.2.2 2 0 2.7-.7 3-2.4l.8-4.9c.5-2.5-.4-3.7-3-3.8h-7.3Zm-4.2 41.8c-8.6-.1-9 .2-8.7 7.1.1 2.2 1 3.3 3.2 3.3h9.7c6.5 0 6.5 0 7.4-6.4.4-2.4-.3-3.3-2.8-3.5-3.4-.3-6.8-.4-8.8-.5Zm32.2-9.9v-.3c1.2 0 2.3.2 3.5.1 1.1 0 2.3-.2 3.4-.1 4.6.4 5 0 5.2-4.5v-2.5c0-1.9-1-2.7-2.8-2.7h-11.9c-6.6-.1-6.9.2-6.2 6.8.2 1.5.7 2.5 2.4 2.7l6.4.5ZM52 19.3c0 5.7-.3 5.2 5 5.2h2c3.4.2 6.9.5 10.3.5.9 0 2.2-.8 2.4-1.4.6-2 .7-4 .8-6.1.2-1.8-.8-2.4-2.6-2.4-4 0-8.2 0-12.2-.5-5.1-.6-5.5-.4-5.5 4.7Zm28 23.2c-.2 2.4.9 3.5 3.4 3.5 5 0 10 .2 15 .1.7 0 1.6-.9 1.8-1.5.3-1.6.2-3.3.3-5 0-1.7-.6-2.6-2.4-2.6l-14-1c-2.1 0-3.6 1-3.7 3.3l-.5 3.2Zm5.3 44.7v.2l10-.6c2.3-.2 3-1.4 2.6-4.6-.2-2.4-1.3-3.4-3.4-3.2a37 37 0 0 1-4.2 0c-3.7-.2-7.3-.5-11-.9-1.4-.1-2.2.6-2.3 2-.2 1.4-.4 2.9-.4 4.4 0 1.6.6 2.7 2.5 2.7h6.2Zm-29.7-11v.1h-4.2c-.7.1-2 .5-2 .8-.2 2.5-.3 5.1.2 7.5 0 .6 2.3.8 3.6 1.1.8.2 1.7.4 2.5.4 2.7.2 5.4.6 8.1.4 1 0 2.6-1.3 2.6-2 0-2.5 1.3-5.3-1.2-7.4a1258.6 1258.6 0 0 0-9.6-.9Zm3.5-19.8h-6.8c-1.8 0-3 .9-3 2.9 0 1-.2 2.1-.1 3.2 0 1.7 1 2.6 2.6 2.7l12.7.7c2.1.1 3.2-1 3.5-3l.4-3.5c.3-2-.7-3-2.6-3h-6.7Zm71.4 26.7c0-3.8-.4-4-4.1-3.9-5 .1-10 .1-15-.1-2.2-.2-3 .8-3.4 2.6-.6 3.5.7 5 4.4 5.1 4.5 0 9-.1 13.4.2 4 .3 4.7 0 4.7-3.9ZM143.2 23h.2c0 .9-.2 1.9 0 2.7.3.6 1 1.5 1.6 1.5l9.1.7c1.7.1 2.5-.6 2.6-2.2.3-2.6.8-5.2.7-7.8 0-.8-1.5-2-2.4-2.2-2.8-.3-5.8-.2-8.7 0-.8 0-2 1-2.3 1.6-.5 1.8-.5 3.8-.8 5.6Zm5 45.4h3.2c1.7 0 4.1.4 4.3-1.8.3-2.6-.5-5.3-1-8 0-.2-1-.3-1.5-.3H147c-5-.6-5.9 0-6 5v2.8c0 1.5.8 2.3 2.3 2.3h5Zm.8-21c1.7 0 3.4.2 5 0 .8-.2 2-1.1 2.2-1.9.3-1.6.3-3.4 0-5.1 0-.7-.8-1.6-1.4-1.7a85 85 0 0 0-10-1.1c-.8 0-1.9 1.1-2.3 2-.5.8-.5 1.9-.5 2.9-.3 4.3.2 4.8 4.5 4.9h2.5Zm0 32c-1.7 0-3.5-.3-5.2 0-1 .2-2.6 1.2-2.6 1.8-.1 2.1-1 4.6 1 6.3.3.2.7.1 1 .2l7.7.5c5.7.2 6.2-.3 5.6-6-.2-2-1-3.2-3.3-3-1.3.2-2.8.1-4.2.1Zm31.4-15c-.7-.8-1.6-1.5-1.7-2.2-.3-3.6-2.6-4-5.4-3.8l-2-.1c-1.6-.3-3.4-.7-3.9 1.1-.5 2.3-.4 4.7-.4 7 0 .3.7.8 1.1.8 4.3-.1 8.7.9 12.3-2.7Zm-9.5 23.3c4.7 0 8.6-3.4 8.9-7.3 0-1.8-.4-3-2.5-2.7l-6.4.5c-3.4.3-3.5.3-3.4 3.8 0 1 .4 2 .3 3-.1 2.5 1.3 3 3.1 2.7Zm-137.6-47v2c-.3 2 .5 3.2 2.8 3.2 3.2.1 4-.4 4.2-3 0-2.3.2-4.7.1-7 0-.6-1-1.7-1.6-1.8-4.6-1-5.2-.4-5.5 4.3v2.2Zm-16.2-1.9c.1 1.3 0 2.5.3 3.7.5 2.2 2.4 2 4 2.1.5 0 1.5-.8 1.6-1.3l.7-8.9c0-1.8-.9-2.5-2.7-2-3.3 1-3.7 1.7-3.9 6.4Zm2.5 38.3v3.5c.2 1 .6 2.9 1 3 1.7 0 3.5-.3 5.1-.5.2 0 .4-.6.4-.9-.7-3.2-1.3-6.4-2.3-9.5-.2-.8-2-1.1-3-1.3-.3 0-1 1.4-1.1 2.3-.2 1 0 2.3 0 3.4Zm15.4-58v1c0 2.6 4.2 5 6.4 3.6.3-.2.6-.6.7-1l.6-6.6c0-.4-.4-1.2-.8-1.4-3.5-1.8-6.9.4-6.9 4.4Zm-17.2-1.2.1 2.8c.1.5.5 1.3 1 1.5 3 1.4 6-.2 6.6-3.4.8-3.5.3-4-3.1-4.3-.8 0-1.6-.3-2.4-.4-1.3-.2-2.2 0-2.2 1.6v2.2Zm152.7 13.2c-.5-4-.8-7.8-1.5-11.5-.1-.8-1.5-1.3-2.6-2v8.6c-.3 2.7.6 4.5 4.1 4.9Zm-131 28.8c-.2-2.4-1-3.2-3.5-3-2.2 0-3 1.1-2.8 3.5.2 2.5 2 2.5 3.7 2.5 1.9 0 2.8-.9 2.6-3Zm127.3-15.8c0 1.6 0 3.2 2.1 3.3 1.9 0 3.5-1.6 3.6-3.4 0-2.2-1.4-3.2-3.3-3.4-2.5-.1-2.1 2-2.4 3.4Zm-145 16.4c.4-.6 1.5-1.4 1.6-2.2.2-1.9-1-2.9-2.9-2.9-1.5 0-2.7.6-2.7 2.2 0 2 1.5 2.5 4 2.9Zm16 23.2 1-.2c-.2-2.7-.4-5.5-.8-8.3 0-.4-1-1-1.8-1-.2-.2-1 .6-1 1 .5 2.9.4 6 2.5 8.5Z"/>
</svg>
