<svg xmlns="http://www.w3.org/2000/svg" viewBox="0 0 164.6 257.9">
  <path d="M7.6 122.7c2.8-.5 4.7 1 6.2 3.4 1.1 2 2.5 3.6 5.2 2.7 2.4-.8 3.7-3.1 3.5-6-.3-7-.7-14-.8-21-.2-9.6-.3-19.2 0-28.9.2-3.8 0-7.4-.8-11.1-.5-2.3-.1-4.8-.3-7.2 0-1.7-.2-3.5-.7-5.2-1-2.8-2.7-3.5-5.5-2.8-2.5.6-5 1.5-7.5 1.5-5.1 0-8.7-6.8-6-11 1.5-2.4 1.7-4.3 0-6.7-1.8-2.5-.8-5.3 1.8-7 2.5-1.6 5-3 8-3 .8 0 1.8-.5 2.5-.1 3.8 2 6.8-1.1 10.2-1.5 1.7-.2 3.4-.1 5 0 1.3.1 2.5.6 3.7.9 2.1.5 3.7.1 4.7-2.1.3-.7 1.5-1.2 2.4-1.4 3.6-.4 6.8-1.8 9.9-3.8 2.5-1.7 5.7-2.5 8.6-3.7.7-.3 1.5-.3 2.1-.7 5-3.5 11-4.7 16.7-6.2A45.8 45.8 0 0 1 98 1c6 1.3 12 2.8 17.9 4.5 2.6.7 5 2.5 7.5 3.1 6.7 1.7 12.3 5.4 18.1 8.8 2.5 1.4 4.6 3.7 6.8 5.7 2.5 2.2 4.7 4.8 7.3 6.8 4.1 3 6.4 7.3 8.6 11.7.3.6.4 1.3.4 2l-1 15.4c0 .8-.5 1.6-1 2.4-1.2 2-2.6 3.8-3.8 5.7-.7 1-1.1 2.3-2 3.1-4.8 4.7-9.6 9.5-14.7 13.8-5.6 4.6-11.5 8.9-17.4 13.2a932 932 0 0 1-17 12.5c-1.2.8-2.7 1.6-4.2 2a7 7 0 0 0-5.2 3.7c-.5.8-1.3 1.6-2.1 2-2.7 1.7-5.5 3-8.3 4.6-1.6 1-3 2.2-4.7 3.2a243.2 243.2 0 0 1-20.4 9.6c-3.6 1.5-7 3.5-11.2 3.5-3 0-4.7 2.2-4.2 5.2 1.1 6.1 2 12.3 3.5 18.4 1.3 5.3 3.3 10.4 5 15.7 2.3 6.8 4.8 13.6 6.7 20.5 1 3.7 1.4 7.8 1 11.6-.4 5.3-2 10.6-2.7 16-.6 4.9-.9 9.9-.7 14.9a30 30 0 0 1-4.8 15.2c-1.7 3-8.2 3-10.8 0a15 15 0 0 1-3.9-11.5 7 7 0 0 0-1.7-5.1c-2.2-2-2.9-4.5-3.3-7.1-.7-4.1-1-8.3-1.7-12.4-.2-1.6-.5-3.3-1-4.9-2.8-7-3.3-14.4-4.4-21.7-1.2-8-2.6-16-3.7-24.1-.7-5.7-1.1-11.5-1.8-17.2-.2-2-.7-4.2-1.2-6.3-.6-2.4-2.1-4-4.7-3.6-2.8.3-4.3-1.2-5.8-3.4-1-1.5-2.7-2.6-4.1-3.8-1.4-1.3-2.8-2.4-4-3.7-1.6-1.7-2-3.6-.9-5.8 1-2.2 2.8-2.6 5.1-2.4Zm36-11H43l1.3 7.4c.4 2.3 2.1 3.4 4.4 2.6 2.8-.9 5.6-1.8 8.3-3 4.3-2 8.5-4.2 12.7-6.4 2.8-1.4 6-2.6 7.8-5.5.3-.5 1-.8 1.6-1 4.5-1.8 8.9-3.7 12.3-7.3.8-.9 2-1.2 3.2-1.8l2-1 12.6-9 6.3-4.2c2.4-1.6 5-3 7.1-4.9 3.6-3 7-6.4 10.6-9.5 1-.9 2.9-1.1 3.8-2.1 5.2-5.4 10.2-10.8 11.2-18.7.3-3.1 0-4.4-2.6-6.4-1-.7-1.4-1.9-2.2-2.8-1-1.1-1.9-2.2-3-3.2-.5-.4-1.4-.5-2-1-8.2-6-17.8-9.7-27.2-13-6.6-2.5-14-3-21.1-3.6-3.7-.3-7.5 1-11.2 2-5 1-10.3 1.1-14.6 4.5-1 .8-2.7.7-4 1.1-1.3.4-2.6.7-3.8 1.2l-10.6 4.7c-1.6.8-3.4 1.5-4.6 2.7-2.5 2.6-4.7 4.9-3.4 9.6 1.7 6 1.3 12.7 1.9 19 .3 3.3.8 6.2 4.5 7.7 3 1.3 3.2 4.1 1 6.6-.8.8-1.7 1.4-2.3 2.3-.6 1-1.2 2.3-1.1 3.4.5 9.8 1.2 19.7 1.9 29.5Z"/>
</svg>
