<svg xmlns="http://www.w3.org/2000/svg" viewBox="0 0 284.6 357.9">
  <path d="M255.4 357.1c1.8.8 3.4.8 4.1.8.6 0 4.4-.2 5.7-2a5 5 0 0 0 .8-2.5v-.5c-.2-.5-.3-1.1-.2-1.9l.4-8.1 1.2-14.1c.3-2 1.4-4 1.7-6 .8-6.4 1.5-13 2-19.5.6-9.1 1.1-18.2 1.5-27.4.2-4.1 0-8.3 0-12.4.1-1.6.2-3.4 1-4.6 2.7-4.2 2.9-8.7 3.1-13.4.3-4.4 1.3-8.7 2-13 .6-4 1.8-7.9 1.2-12-.3-2.7.6-5.4 1-8 .2-1.9.7-3.7.6-5.5-.1-3.4-.6-6.8-.8-10.3l.3-2.7c.7-4.4 2.1-9 1.7-13.3a29 29 0 0 1 1-11c.6-1.7.8-3.8.3-5.6-1.3-5.1 0-10.2-.3-15.4-.1-1.5-.3-3.2.1-4.7 1.6-5.5.4-10.8-.6-16.2-.4-2.3-.3-4.6-.3-7 0-1.3.2-2.6 0-4a716.1 716.1 0 0 0-3.3-37.6c-.4-3-.3-5.7.6-8.6.4-1.5.5-3.6-.3-4.8a42 42 0 0 1-4.8-14.3c-.5-2.5-1.7-5-2.7-7.4-.6-1.3-1.2-2.5-.7-4a5 5 0 0 0-.2-3.6 51.7 51.7 0 0 0-4.5-7.9 13.8 13.8 0 0 0-4.5-3.8c-5.3-2.7-10.8-5-16.2-7.6-1.3-.6-2.5-1.6-3.9-2.2-5.8-2.8-11.6-5.7-18.3-5.7l-.5-.1-25.2-5.5a49 49 0 0 0-6.7-.6l-16.5-1.2a20 20 0 0 1-4.2-.5c-2.5-.4-5-1.5-7.5-1.4-7.7.2-15.3.9-23 1.4l-10.2.5c-4.5.4-9.1.2-13.4 1.3a108 108 0 0 1-32.5 4.2c-.9 0-1.8.4-2.6.6-2.1.6-4.2 1.5-6.3 1.9-5.3 1-10.7.8-15.9 3.4-4.7 2.4-10.5 2.8-15.8 4.1-1 .3-2 .7-2.8 1.2-1.3.6-2.6 1.5-3.9 1.7-1.7.2-3 .6-3.5 2.5-.8 2.6-2.8 3.5-5.4 3.4-.8 0-1.7 0-2.4.4-5.1 2.5-7.8 7-9.8 12-1.9 5-3.2 10.2-5.4 15a98.7 98.7 0 0 0-7.3 24.2C2.6 81.5 2.5 85.4 2 89c-.6 4-1.8 7.8-1.8 11.7-.3 21.2-.7 42.4 2.4 63.5 1 6.8 0 13.9 3.3 20.5 3.1 6.5 1.7 14.2 5 20.8 1.1 2.3 1.8 5 3.4 6.8 2 2.6 2.9 5.3 3.3 8.4.4 2.8 1.3 5.5 2 8.2.7 2.5 1.8 5 2.5 7.5.8 3.2 1 6.6 2 9.7 1.2 3.6 1 7 .1 10.7-.7 2.7-.3 5.6-.4 8.3 0 1.6.2 3.2.1 4.7-.2 4.2-.8 8.3-.8 12.5 0 7 .2 14.1.6 21.2.3 6.5.9 13 1.4 19.6.2 2.4 1 4.9.8 7.3a29 29 0 0 0 2.8 14.7c.3.5.7.8 1.2.9h.8a244.6 244.6 0 0 1 9.1.1l.8-.1c1.5-.2 2.4-1 2.4-2.6 0-9.5.1-19-.1-28.5-.2-7.7-.9-15.4-1.3-23-.2-2.9-.5-5.7-.5-8.5 0-3.3.2-6.7.6-10 .4-3.2 3.9-5.2 6.4-4l7.3 2.8c2.9 1.1 6 1.9 6.4 5.8 0 .7 1 1.5 1.7 1.8 1.4.7 3 1.4 4.5 1.7 1.4.2 3.2.6 4.2 0 3.8-2.4 7.9-2 12-2 4.2.1 6.4 2.2 6.7 6.4.3 3.3.3 6.5.6 9.7.3 3.7 0 7.6 1.4 10.8 1.3 3.4 2.6 6.6 2.7 10.2.1 2.6 3 5.2 5.3 5.3 3.7 0 6.8-1.6 7.2-4.5.6-4.1.9-8.3 1-12.4 0-5.7-.7-11.3 1.3-16.8 1-2.6 2.3-3.4 4.7-2.7 5 1.6 9.9 3.3 15 4.6 3 .7 6.3.7 9.5 1l8.9.7c2.4.2 4.9.7 7.4.7 7.2 0 14.4-1 21.5-.2 6 .6 11.5-1.5 17.2-1.7 2.8-.1 3.7.1 4 2.9a7 7 0 0 1 0 3.2 24 24 0 0 0 .1 11c1.2 5 1.8 10 2.6 15 .1.5.3 1.1.6 1.3 1.3.9 2.7 2.3 4 2.2 3-.2 6-1.2 8.9-2 .4-.1.6-1 .8-1.7 1.2-3.7 1.5-7.5.6-11.3-.5-1.7-.8-3.5-.7-5.2 0-4 .3-8 .8-11.9.2-2.2.8-4.4 1.5-6.5.4-1.6 1.7-2.3 3.4-2.7 2.6-.5 5-1.6 7.4-2.5 1.6-.5 3.1-1.4 4.7-1.8 2.3-.6 4.7-.7 7-1.4l4-1.4c6.6-2.3 11 1.7 9.2 8.5l-.3 1.5a190 190 0 0 0-1.2 10.9v7.7c0 2.7.6 5.7-.3 8-2 5.2-2.5 10.5-2.5 16v12.9a23 23 0 0 0 0 5.6 11 11 0 0 0 6.2 8.2ZM97.4 99.4c-1 5.6-2.3 11-3.1 16.6-1 7.3-1.8 14.7-2.4 22-1 13.4-2.1 26.8-2.9 40.3-.7 14.3-1 28.7-1.5 43 0 1.8.4 3.6.7 5.4 1 5.5 1.7 11 2.8 16.4.6 2.8 1.5 5.6 2.8 8 1.3 2.7 1.1 9.1-1.2 11-.7.6-2.3 1-3 .5-2-1.1-3.8-1.8-6-.8-.3.2-.9.1-1.4 0-2.5-.6-5.2-1-7.6-1.9-6.4-2.6-13.5-3.4-19.3-7.6-1.6-1.1-3.8-1.2-5.6-2-1.2-.4-2.5-.8-3.3-1.6a58 58 0 0 1-4.9-6.2c-.4-.6-.4-1.6-.5-2.4-.5-3.7-.6-7.3-3.2-10.5-1.7-2-2.2-5-3.2-7.5l-3.2-8.3-2-5.6c-1.1-3.5-2.5-7-3.3-10.7-1.5-6.2-2.7-12.6-4-19-.7-3.4-1.2-7-1.7-10.5-.3-1.8-.3-3.6-.4-5.4l.6-.1-2.2-11.2a49 49 0 0 1-.8-6.7 598 598 0 0 1-.8-19.8c0-3.7.3-7.5.4-11.2.1-2.5.3-5.1 0-7.7a42 42 0 0 1 2.2-16.4c1.5-5.3 2.6-10.7 3.8-16 .8-3.6 2.8-4.6 6-3.1.3.2.7.3 1 .6 4.8 4.4 11 6.5 16.6 9.3 5 2.5 9.8 5.9 15.1 7.3 6.1 1.8 11.6 5.5 18.3 5.3 4.3-.1 8.6.6 13 .9 3.4.2 5 2.1 4.2 5.6Zm115.3 76.7c0 5.8-.6 11.7-.4 17.5.4 9.5.2 19-1.6 28.5-.4 2.3-1 4.5-1.2 6.8-.3 3.2 0 6.3-.3 9.4-.4 4.6-1.2 9-1.5 13.6-.3 4.3-.4 8.6-.3 12.9 0 3-1.6 4.5-4.5 4.5-2.6 0-5 .8-7.6 1.4-2.7.5-5.3 1.7-8 1.8-14.6.3-29.4.4-44 .5a11 11 0 0 1-4.8-1.4 12.7 12.7 0 0 0-8-1.3c-2.8.5-5.7.8-8.4-.9-.4-.2-1-.3-1.5-.3-3.4-.4-5.4-2.4-5.7-6-.1-1.3.3-2.8 0-4.1-.7-2.1-1.3-4.4-2.6-6-1.5-2-2.6-4-2.4-6.6.2-4.3-.7-8.4-2.9-12.2a6 6 0 0 1-.6-2.4c-.2-3.6-.6-7.2-.5-10.8.3-10.9.9-21.7 1.4-32.6l.5-10.2 1.6-42c.1-2.1 1-4 1.4-6.1l4.6-26.3a16 16 0 0 1 3-6.4c.7-1 2.7-1.2 4.1-1.2 3.4-.2 6.8 0 10.1-.1.7 0 1.4-.3 2-.3 6.3.1 12.6.1 18.9.5 5 .3 9.7-.4 14.5-1.9l2.4-.6c9.4-1 19-2 28.4-3.3 4.9-.6 7.7 1.8 8 6.7.2 3.2 1 6.3 1.5 9.5.5 4 .6 8 1.4 11.9 3 13 2 26.4 3 39.6v18Zm5.6-110.8c-5.2 2-10.2 4.4-16 4.1-1 0-2.1.5-3 1.1a13.6 13.6 0 0 1-8.2 2.4c-7.5 0-15 0-22.1 2.6-5.5 2-11.2 1.2-16.8 1l-3-.1-21.2-.1c-7.8-.2-15.6-.7-23.4-1-.6 0-1.3-.2-1.8-.5-1.5-1.1-2.9-1-4.4-.1-2.4 1.2-4.2 1-5.6-1.5-1.7-3-4.2-4.6-7.6-5.3-4.5-.9-8.8-2.3-13.2-3.3-1-.3-2.2-.4-3.3-.2-7.4 1.4-13.5-2-19.7-5.2l-3.2-1.5-10-3.7c-4.9-2.1-5.4-6-2.1-10.2 2.4-3 6-2.8 9-4.4.4-.3 1.1-.3 1.5-.6C48.8 34 55.4 34 61.1 32c1.9-.7 4-1 5.9-1.9 7.1-3 14.7-2.8 22.2-3.4l.1.6 10.3-1.7 28.9-3.7c4.9-.6 9.8-1.5 14.8-1.8 6.2-.3 12.5-.5 18.6 0 11.2 1.1 22.2 3.2 33.4 4 6.5.5 12.5 2.3 18.6 4 .7.1 1.4.3 2 .2 10-1.3 18.1 4 26.5 7.6 2.5 1.1 4.8 3 7.7 4 .9.2 1.8 1.6 2 2.7 1 3.7.8 7.3-2.4 10-.2.2-.5.7-.7.6-3.1-.4-4.7 2.4-7.1 3.3-1 .3-2.3.6-3 1.3-2.4 2.8-5.7 2.8-8.9 3.5-4 .9-7.8 2.6-11.7 4ZM265.1 175c-.2 5.5-1 11-1.4 16.4-.7 9-1.3 18.2-1.8 27.3-.2 2.4 0 4.8-.3 7.2a44 44 0 0 1-2 7.1c-.6 1.9-1.7 3.6-2.2 5.5-1 3.4-1.7 7-2.4 10.4-.4 2.5-2.1 4-4 5.4-2 1.5-3.6 3.4-5.7 4.7a12 12 0 0 1-5.3 1.6c-2.7.2-5 .7-7 2.5-2.8 2.3-5.6 1-7.2-2.1-1.5-3-1.2-5.6-.3-8.6.5-1.7.4-3.6.7-5.4.5-3.4 1.2-6.8 1.6-10.2l3.7-30.7v-1.2c-2.2-5-.4-10-.4-15 0-4.7-.3-9.5-.5-14.2-.2-6.6-.3-13.3-.6-19.9l-1.1-24.9c0-1.2 0-2.5-.2-3.7-.4-2-1-3.8-1.3-5.7-.4-3-.6-6-1.1-8.9l-2.4-12.1-.1-2c-.2-2.7-.1-5.4-.5-8.1-.6-5.4 2-8.8 7.3-9.5l3-.3a9 9 0 0 0 7-3.2c.9-1 2.4-1.4 3.6-2 1.3-.6 2.5-1.3 3.8-1.7 3.2-1 6.4-1.9 9.6-2.5 2-.4 3.6 2.1 3.6 5l-.7.2c.6 2 1.4 3.8 1.8 5.8.4 2 .5 4.1.6 6.2.7 7.2 1.5 14.4 1.8 21.6a705.7 705.7 0 0 1 .5 65Z"/>
</svg>
