<svg xmlns="http://www.w3.org/2000/svg" viewBox="0 0 444 178">
  <path d="M443 105V94c-1-4-3-7-7-9-2-2-4-1-6 0-2 0-3 0-3-2l-2-3-5-5-3-5-4-3-12-13h-1l-5-3-3-2c-2 0-4-1-5-3-1-3-2-5-5-6-4-2-9-2-11-7h-1l-11-7-5-2c-5-1-9-4-14-6l-7-3-21-6-1-1c-4-1-8-3-12-2h-3l-13-3h-5c-10-3-21-2-32-3h-13l-21 1-36 4h-1l-20 4h-2l-15 3-7 1c-4 2-10 0-14 3h-1l-12 3-6 1-5 1c-2 2-5 2-7 3l-23 5a160 160 0 0 0-30 11l-8 5-11 13-7 11-1 5-3 6-2 3v9l9 16c1 5 5 7 8 10l3 4 9 9 3 1 7 5 13 8 1 1 4 1 5 2c5 2 9 5 15 4v1l11 4 12 4 9 2 6 3 3 1 13 3 39 5 20 2h29l24-1 9-1 31-1 5-1 15-3 12-2 3-1 12-4c3-1 8-1 11-4h1c6 0 9-4 14-6 3-1 6-4 10-4l1-1 5-4c4-3 9-3 13-7l13-8 2-1c1-3 2-3 4-4 4-1 6-3 8-7l3-4c0-1 2-1 2-3 2-4 6-5 10-3l3 1h9c3 0 4-1 3-4ZM205 30c3 0 4-2 3-4-1-3 0-4 3-5l10-1 16 1 26 1 15 1 2 2c1 1 0 2-1 3l-8 6-5 4a1681 1681 0 0 1-15 11c-7 1-13 3-20 2h-6v-1l-13 2c-5 1-7-1-6-6 0-4 1-9-2-14-1-1-1-2 1-2Zm-6 43 8-1c3 0 6 1 8 3l9 6c3 1 5 3 7 6l3 3c2 5 7 8 4 14v1c-1 6-1 5-7 6l-5-1c-3 0-4-1-4-3 0-3-1-5-3-8l-7-9-3-3-6-1h-4l-4 1c-3 1-6 4-8 8l-1 2-2 2-1 1v16l-1 2-2-1-4-9c-1-2-2-3-1-5l1-2 2-2 7-11 1-1v-9l4-3 9-2Zm-69-40 10-1 12-3 18-4 12-1h2c3 0 5 1 5 5v3l-1 6 1 12c0 3-2 5-5 6l-3 1c-3 0-5 2-8 3-3 3-6 3-10 1l-11-5-4-4-4-4-7-5-10-7-2-1 5-2Zm29 99c-8 3-14 7-23 7l-14 5c-2 0-4 2-6 1h-6l-16-7-3-1-9-2h-1l-13-6-2-1c-5 0-9-3-13-7l-9-6-2-2-9-8-7-9-4-10-1-3 9-17 7-6 11-5c4-2 7-5 12-5l3-1c6-3 13-4 20-5l9-2c5-1 7 0 7 4 0 2 4 6 6 6h7c3 0 6 0 9 2l12 6 7 7 1 2c2 2 2 3-1 4l-17 8c-6 2-11 3-17 3l-21-3c-10-1-20-3-31-2l-14 2c-1 0-3 0-4 3 0 2-1 5 2 7 4 3 9 5 15 4 9-2 18-2 26 2l6 1 14 1 18 1 14-5c2-1 5-2 6-5h1l13-5c3-1 5 1 4 4-1 8-1 16 1 24 1 4 2 8 5 12 2 1 2 4 0 5l-2 2Zm113 21-3 1-2 1c-6-1-11 0-16 1l-9 1h-13l-22 1-6-1h-3l-27-2-8-2-2-1 2-3 8-4 3-2c3-2 5-2 8-2l12-3 17-2 5-2 9-3 13-4 9-2c3-1 4 2 5 4v2c0 2 1 4 3 5l9 8 7 6 1 3Zm120-43c-4 4-8 8-14 9l-1 1c-2 3-5 4-8 5l-6 3-7 4-5 3-1 1c-3 0-5 1-8 3l-7 3-13 3-4-1c-3-3-4-3-8-1h-2l-10-2c-3 0-5-1-7-3l-8-3c-3-2-7-3-9-7l-3-2c-2-1-2-2-2-4l-1-2-7-6c-4-2-6-5-6-9v-6c-2-5 1-8 6-9l8-1v1h9l13-2c10-2 20-1 31-1l18 1 2 1 19 6 5 3 16 5 8 2 4 2-2 3Zm10-26-4 2c-8-1-16-1-24-5l-6-2-7-3-12-4h-1c-5-3-11-2-16-3l-14-1h-17l-11 1c-8 2-15 1-22 4h-3c-5 0-9 1-14 3-2 1-4 1-6-1l-1-7 1-1 9-2a57 57 0 0 0 23-14l10-8c4-2 8-6 13-5 2 1 3 0 5-1 4-1 9-1 13 1 3 2 5 1 8 1l5-1h5l5 1 5 2 10 6 3 2 6 4 3 2c1 3 4 4 6 6l10 8 11 8 5 4 2 3Z"/>
</svg>
