<svg xmlns="http://www.w3.org/2000/svg" viewBox="0 0 363 266">
  <path d="M140 213V63l-1-57 2-5c3 0 8-3 10 2 5 10 14 15 21 23l48 48 35 31 26 24 17 13 4 5c0 3-1 6-6 6a4678 4678 0 0 0-98-1c-13 0-26-3-39-6l-10-1v28l2 32 1 5 2 2a679 679 0 0 0 69 0l25-2 49 1 22 1c13-1 25 4 35 12 8 6 11 15 7 23-2 5-6 8-10 10-9 4-18 5-27 5l-25 4-18-1-33-1h-22l-42-1h-28c-20 0-39 0-59-2s-41-5-60-14c-15-7-26-18-36-31l-1-6 5-1 25 2h31l25-1h26l28 3Zm-127 4-1 2c8 6 16 13 25 18 14 8 30 13 47 14l59 3 38 1c16 2 31 2 46 1h75l27-2 18-4c8-2 13-10 6-17s-16-13-27-14l-16 1-42-2h-29l-28-1-37 2c-6 0-13-2-19 0-7 2-12 1-18 0l-30-3-54 2-30-1H13ZM145 9l2 33 2 57v35l3 4c18 3 35 4 52 4l7-1h21l40 1h14l1-2-6-1-14-7-5-8-16-14-42-40-37-38-22-23Z"/>
</svg>
