<svg xmlns="http://www.w3.org/2000/svg" viewBox="0 0 326 315">
  <path d="m203 201 5-1c0 6 4 9 8 13l28 26c5 6 12 11 17 18 1 2 3 4 5 4l4-7c3 3 2 6 0 10-1 3 2 6 1 10-4 1-7-1-9-3l-38-40-17-15c-1-1-2-2-3-1-3 3-8 2-8 7l-5 5-31 27c-4 3-7 9-14 9-2 0-2 3-3 4l-13 11-20 17c-10 7-20 14-32 18-8 2-16 3-24 0-5-1-8-4-8-10 0-1 0-3-2-4h-2c-19 11-31 0-37-14-6-12-6-26-4-39 0-9 1-19 5-27 8-20 19-37 36-51l34-28 16-15c7-7 14-14 22-18v-6h2c4 4 5 2 7-2 2-5 7-6 11-10 7-7 17-11 25-17 12-1 13-10 13-19 1-16 6-30 13-45 4-10 4-10 13-3 12 10 21 23 23 40 1 7 3 13 1 20 0 3 1 5 3 7l48 52c17 18 34 36 49 55l4 5c1 3 1 5-2 6-2 2-4 1-6-1l-18-20-23-26-42-45c-6-8-12-15-20-21-2-2-2-5-2-8V53c2-6-1-11-3-17-4-9-8-17-17-23-2 8-8 15-10 23-3 12-4 24-5 36 0 2 0 2-2 3l-6 3c-9 2-15 8-23 12-8 5-16 10-23 18-2 4-7 5-11 8-10 7-19 16-28 24l-14 13c-15 13-30 24-42 40-7 10-12 21-18 33-2 6-2 12-2 19-2 11-1 23 2 34 3 12 10 17 22 14 9-1 15-5 20-12 2-2 3-4 6-2s4 5 1 8-4 8-6 12c-3 5 1 9 7 9 15-1 27-8 39-16l35-29 28-23 36-32c2-2 4-4 4-7Z"/>
  <path d="M172 117c0 2 0 4-2 4-5 0-6 2-7 5-1 2-1 3-3 3-2-1-2-2-2-4s0-4 2-5c3-4 2-6-2-8l-3-2c-2-1-3-2-2-4 1-3 3-2 4-2 3 1 4 2 5 4 3 3 5 1 7-2v-2c1-2 1-4 4-3 2 1 3 3 1 6l-3 9 1 1Z"/>
</svg>
