<svg xmlns="http://www.w3.org/2000/svg" viewBox="0 0 890 248">
  <path d="m889 220 1 4-1 5c-1 2-2 4-4 4-13 2-27 4-41 4-29 0-56-7-77-29-8-8-18-15-25-25-8-10-15-22-22-34l-25-51c-3-8-16-12-26-10-11 2-18 9-25 17l-31 38-39 51-10 12-22 24c-8 8-19 13-31 15-7 1-14 3-22 3-15 1-29-5-40-16-9-9-16-21-21-34-10-22-16-45-22-68-3-12-4-24-8-36-7-26-19-48-41-65-14-10-29-19-47-21-12-1-23 1-33 6-22 10-40 25-54 44l-18 27c-4 6-5 13-8 19l-9 23-16 42c-4 11-10 21-16 31-5 8-11 15-18 22-2 3-6 4-9 6l-25 13c-5 2-11 2-16 3-22 2-43 0-64-6-8-2-15-6-18-14l-5-6-1-5 6 1 4 6c6 9 15 12 25 13 15 4 31 5 47 3 12-1 23-2 33-10l10-5c13-6 20-18 27-30 8-11 12-25 17-38l8-20 13-34c4-13 10-25 18-35 7-9 13-19 21-26 16-16 34-30 57-36 16-4 32-2 47 5 13 5 24 12 33 21 19 16 32 36 38 59l8 32 13 51c5 17 12 34 23 49 13 18 31 25 53 20 10-1 20-3 28-9 4-3 9-6 12-10l37-44 52-67c7-9 15-19 26-25 13-7 39-5 47 13 8 19 18 36 27 54 7 14 15 28 27 38 12 12 24 25 41 32 11 5 22 7 34 7l45-2c4 0 9 0 10-7l2 1Z"/>
</svg>
