<svg xmlns="http://www.w3.org/2000/svg" viewBox="0 0 564 262">
  <path d="M552 259c-6-6-9-9-17-8h-27l-46 1-21 1-29 1-38 1-55 1-46 2-60-1-99 1-51 4c-11 0-22-4-32-6-2-1-5-5-5-8l-6-46-4-34-3-18-6-40V94L2 51 0 22c0-2 3-6 6-6a792 792 0 0 1 99-5h92l67-2 43-3 45-3 27 1 41 1h56c10 0 19-2 28-3l30-1 12-1c4 0 7 0 7 5 0 4 2 8 3 11l5 27a872 872 0 0 1 2 89l-4 48-2 36-1 36-4 7Zm3-202 1-1-3-19-6-24c0-5-3-6-7-5l-2 1h-27a241 241 0 0 1-63 4l-30-2h-28l-39-1-37 3a2701 2701 0 0 1-144 6l-26-1-25 1-24-2-46 2-24 1-13 2c-4 1-6 3-6 7l4 24 5 34 2 25 6 46 7 49 4 37c1 5 3 8 8 9h19l8 2 19-2c5-1 10 1 15-1 11-4 22-1 33-3h33l35-1 49 2h28c6 0 13-3 20-1 5 1 11-1 16-1h20l13-1h24l12 1 35-3h26l24-2h17l32-1c7 0 13 3 20-1h3c3 0 5-1 5-4l1-23 2-46 1-12 5-57-2-42Z"/>
</svg>
